<?xml version="1.0" encoding="UTF-8"?>
<svg id="svg5" xmlns="http://www.w3.org/2000/svg" version="1.1" xmlns:svg="http://www.w3.org/2000/svg" xmlns:xlink="http://www.w3.org/1999/xlink" viewBox="0 0 1037.85 1385.33">
  <!-- Generator: Adobe Illustrator 29.5.1, SVG Export Plug-In . SVG Version: 2.1.0 Build 141)  -->
  <defs>
    <style>
      .st0 {
        fill: #f46eb5;
      }

      .st1 {
        fill: #e7dcd7;
      }

      .st2 {
        fill: url(#Dégradé_sans_nom);
      }

      .st3 {
        fill: #d41116;
      }

      .st4 {
        fill: #131c22;
      }
    </style>
    <linearGradient id="Dégradé_sans_nom" data-name="Dégradé sans nom" x1="209.09" y1="299.21" x2="204.77" y2="77.7" gradientTransform="translate(-64.96 977.9) scale(2.83 -2.83)" gradientUnits="userSpaceOnUse">
      <stop offset="0" stop-color="#ffe92e"/>
      <stop offset="1" stop-color="#d41116"/>
    </linearGradient>
  </defs>
  <g id="g1">
    <g id="g72">
      <path id="path2" d="M530.13,864.65c1.53-.69,4.46-2.84,4.98-3.64.26-.41.87-1.05,1.35-1.44.87-.7,2.5-2.66,2.43-2.92-.03-.07.31-.78.73-1.55,1.05-1.92,1.57-3.04,1.7-3.66.06-.29.22-.85.36-1.24.36-1.05.21-3.08-.42-5.47-.6-2.3-1.21-3.58-1.98-4.11-.56-.39-1.51-1.86-1.72-2.65-.21-.78-2.87-3.62-4.05-4.32-.93-.55-1.08-.58-1.84-.38-.8.21-2.19,1.24-2.34,1.72-.04.11-.59.8-1.23,1.53-1.45,1.64-1.54,1.94-.92,3.13.31.59.67,1.75,1.06,3.45.61,2.63.63,3.25.11,4.34-.11.23-.4,1.13-.65,2.01-.74,2.61-1.5,3.79-2.63,4.09-.36.1-1.24.43-1.94.73-1.36.6-1.4.6-3.7.35-.57-.06-1.23-.2-1.46-.3-.23-.11-.89-.3-1.47-.44-.7-.16-1.76-.69-3.15-1.57-1.61-1.02-2.26-1.32-2.79-1.32-.46,0-.86-.16-1.19-.46-.28-.25-.92-.76-1.43-1.13-1.06-.77-2.02-1.78-2.81-2.96-.59-.87-1.64-1.85-2.42-2.25-.26-.13-.8-.61-1.21-1.06-.4-.45-.89-.89-1.08-.98-.19-.09-.56-.4-.82-.69-.26-.29-.79-.76-1.18-1.05-.39-.29-.99-.92-1.33-1.41-.78-1.11-1.81-1.7-4.24-2.4-2.13-.62-3.02-.59-4.05.13-.44.3-1.67.81-3.31,1.35-3.34,1.1-4.28,1.54-6.14,2.84-.94.66-1.91,1.19-2.53,1.39-.56.18-1.48.51-2.06.74-.81.32-1.24.38-1.93.32-1.87-.19-4.31-1.41-5.47-2.75-.35-.41-.92-1-1.26-1.31-.91-.84-1.04-1.88-.53-4.2l.4-1.82,2.11-1.85c2.37-2.08,2.77-2.6,2.77-3.66,0-2.07-1.46-3.77-3.88-4.48-1.95-.57-2.43-.59-3.78-.13-1.74.59-2.3,1.08-3.26,2.84-.71,1.3-.98,1.62-2.03,2.38-1.73,1.26-1.96,1.61-2.37,3.59-.2.96-.54,2.14-.76,2.63-.57,1.26-.62,1.94-.32,4.71.41,3.74,1.04,5.16,2.99,6.7.68.54,1.47,1.72,1.69,2.54.16.58.33.74,1.63,1.46.8.44,1.81.89,2.24.99,1.58.38,2.61.91,3.66,1.9,1.79,1.68,2.69,2.11,4.32,2.04.48-.01,1.08.11,1.45.34.78.45,1.76.49,4.91.17l2.45-.24.54-.56c.43-.44.93-.69,2.35-1.17,1.9-.65,2.37-.98,2.67-1.89.2-.61.27-.65,2.6-1.81l1.93-.96.79.38c.44.21.93.58,1.11.83.18.25.7.71,1.15,1.04.68.49.94.83,1.4,1.83.36.77.79,1.42,1.16,1.73.57.48,1.55.88,1.94.78.25-.06,1.91.6,2.25.9.14.13.51.85.81,1.59.45,1.11.7,1.49,1.39,2.1.46.41,1.15.83,1.53.93.38.11.87.42,1.08.69.53.68,2.53,1.86,3.9,2.29.62.2,1.2.43,1.28.51.08.09.76.27,1.49.43.73.15,1.43.38,1.54.5.47.49,2.95,1.14,4.52,1.2.89.04,2.29.15,3.1.27l1.49.21,1.92-.72c1.45-.54,2.2-.74,3.06-.81,1.28-.1,2.07-.31,3.29-.87h0Z"/>
      <g id="g65">
        <path id="path40" class="st3" d="M103.64,1196.93c.14-.14.45-.29.6-.29-.14.57-.14,1.03-.14,1.46l.29-.29c0,1.03-.45,3.23-.45,4.26.45.43.31,1.46.74,2.2l.74-.74v1.48c.29,0,.43-.14.74-.14.43,0,.86.14,1.32.57.29.31.57.31.89,0,0-.14.14,0,.29.14q.14.17.29.17h.45c.14,0,.29,0,.43.14.14.14.29,0,.45,0,.57-.14,1.17-.31,1.6-.31.74,0,1.32.17,2.06.17.45-.17,1.03-.31,1.63-.31.57-.14,1.17,0,1.91-.43.14-.14.29-.14.43-.14.45,0,.6.57,1.03.43.29-.14.29,0,.6-.14.29-.29.43-.43.72-.43.31,0,.45.14.74.29.45,0,.89-.45,1.32-.45.17,0,.31,0,.45.17.14.14.29.14.43.14.31,0,.74-.31,1.17-.74.17.14.31.43.45.43.43.17.74.31.74,1.03,0,.31.14.31.29.45.43,0,.74-.14,1.17-.74.43-.43.74-.57,1.03-.57.14,0,.29,0,.43.14.31.29.74.43,1.03.43.45,0,.89-.14,1.48-.43.29-.14.57-.14.74,0,.14.14.29.14.43.14.43,0,.89-.29,1.32-.89-.14.74.14,1.03.45.89.14-.14.43-.14.57,0,.31.29.45.29.74.43.45.14,1.03.14,1.48.45v.14c.14-.29.29-.45.43-.6l.14-.14c.6,0,.74,0,1.03.14s.6.6.89.74c.43-.29,1.03-.43,1.32-.74.14,0,.31-.14.31-.14.57.6.86.89,1.32.89.29,0,.57-.14,1.03-.43,0-.17.14-.17.29,0,.14.29.45.43.74.43h1.32c.14,0,.14.14.29.14.31,0,.74-.43,1.2-.74.14.6.43.89,1.03.74.43,0,1.03-.29,1.46-.14,1.17.29,2.66.14,3.83.29.43-.14.74-.29.89-.29.29,0,.57.14.72.29.31.31.74.31,1.03.31.31,0,.6,0,.89-.17.14-.14.6-.29.6-.14.43,0,.89.45,1.32.45.45-.14,1.03-.6,1.48-.6h2.49c.89-.43,1.91,0,2.94-.74,0-.14.14-.14.29,0,.14.17.29.31.45.31.43,0,.72-.31,1.17-.74.14-.29.57-.43.72-.43.74-.17,1.34-.89,1.91-1.63.45-.74.6-1.63,1.2-2.35.72-1.34,1.46-4.12,1.6-5.46-.14-.43,0-1.03.14-1.6.31-1.03,0-1.77-.29-2.37-.43-.72-.6-2.2-1.17-2.63-2.06-1.03-4.57-.45-6.77-1.03-.57-.14-1.32-.14-1.91-.45-.43-.29-.89-.43-1.46-.43-.74,0-1.63.29-2.35.29-.31,0-.6,0-.89-.14-.89-.29-1.77-.29-2.8-.29-1.77,0-3.69.29-5.6.29h-3.52c-2.06,0-4.12-.14-6.32-.14-2.35-.14-4.86-.14-7.35-.14s-5,.14-7.51.14h-.89c-.57,0-1.17,0-1.75-.43,2.49-.17,5.15-.31,7.63-.31-.89-.29-1.6-.29-2.49-.29-2.94.14-5.89.14-8.83.14-.29,0-.57,0-.89.29-.57,1.03-2.94,1.2-4.12,1.2-.29,0-.74-.17-1.17-.17-1.17,0-2.2.17-3.52.74-.31,0-.6.14-.89.6-.31.72-.89.89-1.17,1.32-.89.74-1.63,1.46-2.23,3.09-.14.29-.29.6-.57,1.03l.29.29c-.29.89-.74,1.77-1.03,2.66ZM106.87,1195.61c0,.14,0,.29-.29.29,0-.14.14-.29.29-.29ZM105.12,1201.64l.14-.17c.14.17.14.31.14.45l-.29.14c.14-.14,0-.29,0-.43ZM126.42,1205.3v.14h-.14v-.14h.14ZM206.7,1191.64c-.29-.14-.57-.31-.89-.31.31-.72.6-.86,1.2-.86h.43c-.14.43-.43.72-.74,1.17ZM276.7,1143.99c-.29-.57-.45-1.46-.89-2.35.6-.45,1.17-.89,1.77-1.48-.14-.57-.14-1.17-.31-1.6q1.2-1.48,1.34-3.23c0-.6,0-1.2.29-1.63.74-1.17-.29-1.63-.29-2.35,0-.45-.74-.6-1.17-.74-.89,0-1.63-.43-2.06-1.17-.17-.45-.74-.89-1.03-1.32-.31,0-.6.29-.89.14h-.31c-1.6,0-2.92.72-4.4,1.03-2.06.29-4.55,3.23-5.58,5-1.2,1.75-2.23,3.52-2.94,5.29-1.77,3.83-3.4,7.63-4.86,11.32-4.86,11.18-8.69,22.93-12.35,34.56-.14.43-.45.89-.6,1.6-.89-.43-1.17-1.03-1.32-1.75.14-1.48,0-2.8.14-4.28-.14-4.12-.43-8.09-2.06-11.46,0-.14-.29-.43-.14-.57.14-1.77-1.63-2.51-1.77-4.12-1.17-1.03-2.2-2.37-4.12-2.51-.72,0-1.6-.14-1.75-1.03-.17-.43-.6-.74-1.2-.74-.29,0-.57.14-1.03.31-1.75.57-3.52,1.32-5.29,2.06-1.17,1.46-.89,2.78-1.17,4.26-.89,0-.6-.89-.89-1.17-.29-.31-.74-.74-1.03-1.34-1.03,1.48-1.91,2.8-2.94,3.97-1.6,1.63-2.2,3.4-2.35,5.15-.14,1.34-.43,2.37-1.17,3.54-1.77,3.66-3.83,7.49-5.74,11.18-.14.14-.43.43-.74,1.03-.14-.45-.43-.74-.43-1.03-.14-.89-.6-1.77.14-3.09.6-1.03.29-2.37.45-3.4-.45-.14-.74-.14-1.2-.14-.57,2.06-.72,3.97-1.03,6.03.45.89-.43,2.35-.14,3.23-.14,1.03-.29,2.2-.43,3.23,0,.6-.29,1.2-1.17,1.63.29-1.32.14-2.8.57-4.12.14-1.03.45-2.2,0-3.23,0-.14,0-.45.14-.6.89-1.46.74-2.94,1.03-4.4.6-4.12,1.03-8.23,1.63-12.2.29-1.46.29-2.8.74-4.12.43-2.49-.31-4.86.57-7.35-.89-.74-1.91-1.17-1.75-2.51-1.63-.43-3.54,0-4.12-1.6-1.34.29-2.51.89-3.54.89-4.26.57-7.06,4.26-8.66,7.92-.45.89-.45,1.91-.74,2.94-.29,2.66-.6,5.46-1.03,8.09-.14,2.66-.89,5.46-1.03,8.09-.45,2.66-.74,5.43-1.17,8.09-.45,2.06-.89,4.12-.89,6.03,0,.6-.29,1.32-.6,1.91-.57,1.17-.57,2.06-.89,3.23,0,3.23,0,6.46-.72,10-.31,1.46-.14,2.94-.45,4.4,0,.89,0,1.63.31,2.35.43.74.14,1.63,0,2.51-.45,2.63-.6,5.29.43,7.49.14.29.14.74.14,1.03-.14,2.06.45,3.69,1.63,5,.14.29.14.74.29,1.17.14,1.34,1.32,1.91,2.2,2.8,0,.14.45.14.89,0,.29-.14.43-.14.74-.14.57,0,1.03.29,1.46.43.14.14.45.14.6.14.57,0,1.17-.29,1.6-.86.45-.31.74-.74,1.03-.89,1.34-.6,2.51-1.03,3.83-1.63-.29-1.6-.29-1.91,1.48-2.06.29-.43,0-1.46.86-1.77.89-.14,1.2-.72,1.34-1.32.43-.74.57-1.32.89-2.06.57.6.86,1.03,1.32,1.46.74-1.03-.14-1.6.29-2.35.45-.74.89-1.32,1.17-1.77,0-1.03-.14-1.89.31-2.63.86-2.06,2.06-3.97,3.23-6.03,1.32-2.2,2.49-4.4,3.52-6.77.45-1.03.89-1.91,1.34-2.78,0,0,.14-.17.43-.17,0,1.77.14,3.54.29,5.31,0,.72.14,1.46.45,2.2.43,1.32.89,2.8.43,4.4-.14.29-.14.74,0,1.03.29,1.32-.14,3.09.74,4.4.14.17,0,.6,0,.89.14.74.14,1.34.14,2.06.43,1.77.89,3.54,1.03,5.46.14,1.17.74,1.91,1.32,2.2.45,2.35.89,4.26,1.03,6.32.14.14.14.29.14.29,1.03.31.6,1.48,1.2,1.77.72.43.86,1.32,1.17,2.06.29.43.43.74.89.74.29,0,.72-.14,1.46-.45h-1.32c.57-.72.89-1.03,1.17-1.03s.43.14.89.6v-.14c.14,0,.29.14.57.14.89,0,1.77-.89,2.66-1.32.74.14,1.46.29,2.2.29.14,0,.14.14.29.14.31,0,.6-.14,1.03-.6.17-.14.31-.29.45-.29.29,0,.43.29.57.45v.14c1.03-.31,2.37-.45,3.54-.6.57-.57,1.32-1.17,2.06-1.91,1.6-.14,1.17-1.6,1.91-2.2.43-.14.43-.57.89-.74.14,0,.29.17.43.31.43-.31.6-.31.6,0v-.14c.43-.17.72-.31.86-.45.31-.29.17-.89.31-.89,1.17-.43,1.32-1.32,1.75-2.2.31-.74.74-1.46,1.03-2.2.6,0,.74.29.89.6.14-.6.31-1.05.6-1.63.74-.6.29-1.32.29-1.91-.14-.6-.29-1.03.29-1.77.45-.14.45-.72.17-1.03-.17-.43-.45-.89-.74-1.17.74-.74,1.17-1.46,1.63-1.91,0-.89-.17-1.6-.31-2.35.6-.29,1.03-.43,1.03-.6.31-1.32,1.48-2.35,1.63-3.66.14-.74.29-1.48.57-2.2,1.03-1.91.74-3.83,1.91-5.6,0-.14.14-.29.14-.29-.14-1.48.74-3.09,1.34-4.57.14-.29.57-.86.29-1.17-.29-.89.14-1.6.74-2.49.29-.45.43-1.03.57-1.63.14-2.35,1.34-4.55,2.66-6.92.14-.14.14-.43.14-.57,0-1.03,0-1.91-.14-2.94q1.32-1.32,1.77-3.23c0-.29.14-.74.29-.89,1.17-1.17,1.46-2.06.74-2.94-.17-.14,0-.29,0-.43v-.14c.43-.45,1.03-.89,1.6-1.48-.29-1.32,0-2.49,1.03-3.83.29-.43.29-1.03.29-1.46,0-.29-.29-.6-.43-1.03.43-.14.89-.14,1.17-.29.6-1.77,1.17-3.4.29-4.86.74-.89.31-1.77.74-2.51,0-.14.31-.14.45-.29.29.14.57.29.72.6l.31-.14-.89-.45h-.14c.14-.29.14-.57.14-.89-.14-.29-.29-.43-.74-.72.6-.17.89-.31,1.03-.31,1.32-1.03,1.77-2.2,1.17-3.52-.14-.45,0-1.03,0-1.63.89-.29,1.34-.57,2.2-.74-.29-.86-.57-1.46-.72-2.06.29-.43.57-1.03.89-1.46.86-1.32,1.89-2.66,1.17-3.97-.14-.14.14-.74.43-.89.29-.29.6-.43.6-1.03-.14-.43.29-1.03.29-1.6-.14-.74.6-1.34.29-2.06-.14-.6.89-1.34,1.34-1.91,0-.14,0-.29.29-.74h0ZM247.57,1235.46v-.14l.14.14h-.14ZM224.93,1247.35h-.14.14ZM192.44,1238.23l.14-.29-.29.29h.14ZM224.79,1229.42h-.29.29ZM241.71,1188.98c0-.14.29-.29.29-.43,0,0-.14-.14,0-.31-.14,0-.6.17-.45.17,0,.14,0,.43.17.57ZM247.57,1233.09h.14-.14ZM208.18,1179.43h-.31q.17,0,.31-.14h-.14c.14,0,.14.14.14.14ZM263.46,1183.26c-.14,0-.29.14-.29.14q.14-.14.29-.14ZM208.04,1179.58c.14-.14.29-.14.29-.14l-.14.14h-.14ZM208.04,1179.29h.14-.14ZM269.04,1168.11l.31-.14-.14.14h-.17ZM306.25,1243.09c.89-.57,1.77-1.17,2.63-1.77,0-.43-.14-.72-.29-.86,0-.6,0-1.03.6-1.2,1.32-.43,1.91-1.46,2.63-2.63-.29-.29-.72-.6-.89-.89-.29-.74-.29-1.32.6-1.77,1.03-.43,1.17-1.32,1.46-1.91.45-.89.74-1.6.6-2.49-.14-1.77-1.91-3.54-3.97-3.37-1.32,0-2.35-.17-3.66-.45-.89-.29-1.91-.43-3.09-.43h-1.05c-1.89.29-3.8.43-5.72.43-.89,0-1.63-.14-2.35-.14-.17-1.46-.45-2.66-.6-3.83,1.46-1.6,2.2-3.09,2.06-4.83-.14-1.05-.14-2.23.29-3.25.45-1.03.31-2.2.89-3.23.89-1.32.6-2.63,1.03-3.97.14-.29,0-.72.14-.89,1.17-1.03.89-2.2,1.03-3.23,0-.14-.14-.29,0-.43.14-.89.74-1.48,1.77-1.63,1.17-.14,2.66-.57,6.03-1.03,2.06-.29,3.97-.89,5.74-1.03.29-.14.57-.14.72-.14.6-.43,1.48-.89,1.63-1.77,0-.89.89-2.06.29-2.63-.43-.45-1.32-.45-1.91-.6-.72-.29-.72-1.03-.14-1.6.14-.31.74-.6,1.03-.74,0-.45,0-.89-.14-1.32.43-1.77-.14-3.09-1.17-4.28-.29-.72-1.03-1.03-1.91-1.03-2.8,0,2.2,0-.6,0-1.6,0-3.23.17-4.83.17-.6,0-1.34,0-2.06-.17.14-1.46.29-2.92.57-4.26.14-.43.14-.89.45-1.32,1.17-1.63,1.32-2.94.14-3.97,0-.14-.14-.29-.29-.43,0-.31,0-.74.57-1.03.74-.31.89-.74,1.03-1.48-.14-1.77.89-3.66,1.17-5.58.14-.31.31-.6.45-.89.89-1.17,1.32-2.51.89-3.69-.31-.57-.17-1.03.43-1.6.43-.31.74-.74.74-.89,1.91-.45,3.37.14,5-1.03.14,0,.57,0,.57.14.29.29.45.43.74.43.43,0,.74-.14,1.17-.29,1.63-.43,3.23-.74,4.71-.89h2.35c.29-.14.6-.14.89-.14h.57c.45,0,1.03,0,1.48-.29h.43c.89,0,1.77-.74,2.8-1.17,1.77-.89,3.69-2.37,4.86-4.12.29-.17.43-.74.29-.89-1.03-.74-.14-1.77,0-2.51.6-1.32.14-2.2-.6-2.94-.57-.29-.86-.72-1.17-1.32-.89-1.77-2.49-2.2-4.69-2.2-5,0-10,0-15.15.43-3.97.14-7.8.14-11.92.6-2.2.14-4.55.29-6.92.6-1.17.14-2.49.43-3.66.72-2.35.74-3.54,2.2-4.4,4.26-.17.45-.45,1.03-.89,1.48-.31.57-.6,1.32-.6,1.91s-.14,1.17-.29,1.75c-.74,2.23-1.48,4.43-2.06,6.63-.74,2.35-1.77,4.71-1.91,7.06-1.32,4.12-2.51,8.23-3.69,12.2-.72,2.8-1.6,5.43-2.2,8.09-.74,2.63-1.46,5.15-2.35,7.63-.14.45-.29.89-.14,1.32.14,1.48-.45,2.94-1.17,4.43-.17.43-.31.74-.31,1.03-.29,2.2-1.17,4.4-1.03,6.6,0,.6-.29,1.34-.43,1.91-1.03,2.66-1.48,5.15-1.91,7.66-.14,1.17-.14,2.2-.6,3.23-1.32,3.83-2.35,7.49-3.23,11.18-.14,1.03-.74,1.91-.89,2.8-.14.43-.43.86-.89,1.03-.86.29-1.17.86-1.17,1.6,0,.6-.14,1.17-.29,1.77-.14.57-.14,1.03.43,1.17.74.29,1.34.74,1.34,1.63s.43,1.17,1.17,1.32,1.32.43,2.06.57c.43.17.89.17.89.6-.14.74.29.89.89.89,1.03.14,2.35.14,3.52.14.45.14.74.14,1.17.14h1.03c.31.14.74.14,1.03.14.74,0,1.34-.14,2.06-.57.45-.14,1.03-.31,1.48-.31,6.75,0,13.52,0,20.44-.14q2.49,0,5.72-1.32c.17-.14.45,0,.74,0q.14.14.29.14c.31,0,.6-.29.89-.57,0-.17.31-.31.6-.45h0ZM279.64,1213.1c0-.14-.14-.45-.31-.6.17,0,.6-.14.74-.14v.43c-.14,0-.29.17-.43.31ZM279.5,1215.31v.29-.29ZM292.73,1220.31c.14,0,.29-.14.29-.14q0,.29-.14.29s0-.14-.14-.14h0ZM276.41,1227.06s0-.14.14-.14c0,.14-.14.14-.14.14ZM294.62,1208.39v.14h-.14l.14-.14ZM318.74,1246.77v.29c.14,0,.43,0,.6-.14l1.17-1.17h.29c.14,0,.14.14,0,.29,0,.29-.29.74-.6,1.17-.57.89-.57,1.91-.43,2.8.29.74.43,1.46.89,2.06.14.29.29.43.43.43.31,0,.6-.29.89-.57.29.29.45.43.89.43h.43c.89-.29,1.91-.57,2.8-1.03.74-.43,1.63-.74,2.51-1.03,1.75-.74,3.8-1.17,4.69-3.23.31-.14.6-.14.89-.29h-.14l1.77-1.77c2.35-1.77,5.86-4.71,7.35-7.2.74-1.17,2.2-1.91,3.23-2.94.29-.29.89-.6.74-1.03,0-.89.57-1.46,1.46-1.91.6-.43,1.03-.89,1.48-1.17v-.14c.72-.89,1.75-1.77,2.06-2.8.57-1.17,1.6-1.6,2.49-2.49.29-.31.45-.74.74-1.17.29-.31.43-.74.74-1.03,1.46-1.03,2.2-2.66,3.37-3.83.57-.45.89-1.03,1.46-1.48.31-.29.45-1.17,1.34-1.17.14.14.29.45.29.89.43,1.48.6,2.94.89,4.4.29,1.77.57,3.54,1.17,5.15.6,1.48,1.46,2.94,1.17,5-.29.74,0,1.63,0,2.51,0,.43.14,1.03.29,1.46.89,1.03.89,2.37.89,3.69-.29,1.32,0,2.49.6,3.52.29.45.43,1.03.57,1.63.45,1.77,1.48,2.8,3.09,3.66.31.17.74.6,1.2.89.14,0,.43.14.57.14.29-.29.6-.29.89-.29.6,0,.89.29,1.17.74.45.14.74.57,1.17.74,0,.14.31.14.45.14.29,0,.43-.14.43-.45-.43-.29-.89-1.03-1.46-1.17-.89-.29-.31-1.46-.89-2.06,0-.14.14-.43.14-.43.14-.14.29-.14.43-.14.6,0,.74.72,1.34.86.43.17.89.45,1.6.45h.74c.43,0,.89,0,1.03.14.74.14,1.17-.29,1.77-.6.43-.14.43-.43.43-.86,0-.31-.29-.31-.72-.17-.17.17-.6,0-.45-.14.14-.57.74-1.17,1.32-1.17.17,0,.31.14.45.14.29.31.57.6.89.74.14,0,.29.14.43.14.45,0,.74-.43.89-.89,0-.43.14-.89.29-1.17.31-.29.74-.57,1.17-.57,1.34-.45,1.34-.6,1.34-1.63,0-.29,0-.6-.14-.89.57-.14,1.17-.29,1.32-.57.74-.89,1.91-1.77,1.32-2.8-.29-.45.14-.74.6-.89h.89v.14l.14-.14h-.14c-.45-.14-.6-.29-1.03-.43-.45-.31-.45-.6-.17-1.03,0-.17.45-.45.74-.45.14,0,.29,0,.45.14l.57.6c.29.29.29.43.6.74,0-.31.14-.45.29-.74.89-.89,1.17-1.77.74-2.66-.14-.14,0-.29,0-.43.43-1.03-.14-1.63-.6-2.37-.29-.72.74-1.89.14-2.63-.14-.14-.14-.45-.29-.6-.43-.57-.89-1.32-.29-2.35-.31-1.03,0-2.35-1.17-3.09-.31-.29-.45-.89-.17-1.46.45-1.03.31-1.77-.29-2.37-.57-.72-.74-1.46-.43-2.63,0-.17,0-.45-.14-.6-.45-1.32-.74-2.66-1.2-3.97-.29-2.49-1.46-6.75-2.35-8.97-1.17-3.37-2.06-6.89-3.09-10.43-.14-.89,0-1.77.89-2.49-.14-.89,1.32-1.03,1.17-1.91-.14-.6,0-.89.74-1.17.43-.14.74-.6.89-1.17,0-.17.29-.45.29-.6.14-.6.29-.74,1.03-.74.89-.14,1.32-.29,1.32-1.17.14-.43.14-.74.14-1.32.74-.14,1.48-.45,2.37-.74-.31-1.03.43-1.91,1.32-2.49.6-.45.89-.89.89-1.48.14-.43.29-.57.89-.74.14-.14.43-.43.72-.57.45-.89.89-1.77,1.34-2.51.57-.86.89-1.89,2.06-2.35.29-.14.57-.57.74-.74.86-1.17,2.06-2.2,2.63-3.37.45-.74,1.03-1.32,1.77-1.91.14-.14.29-.14.43-.29v.14c.89-1.03,1.77-2.06,2.37-3.09,1.17-1.77,2.49-3.37,3.8-5.15.14-.29.6-.6.89-1.03.29-.6.29-1.46,1.32-1.91.45-1.17,1.63-2.2,2.37-3.37.72-1.17,1.17-2.2,1.77-3.37.14-.17,0-.6-.17-.89.17-1.03-.14-1.77-1.03-2.06-.57-.17-1.03-.6-1.75-.6-.45.14-.89-.14-1.03-.74.14-.14-.17-.43-.31-.43-.89-.29-1.91-.74-3.09-.74h-.43c-.45.14-.74.45-1.32.6-1.48,1.03-2.8,2.06-4.43,3.23-1.32,1.17-2.63,2.35-3.66,3.69-2.51,2.63-4.57,5.72-6.92,8.52-2.2,2.63-4.26,5.43-6.46,8.09-1.77,2.2-3.54,4.4-5.46,6.6-.57,1.03-1.46,2.06-2.63,2.66-.45-1.48-.74-2.94-1.03-4.4-.31-.74-.45-1.48-1.03-2.06-.17-.31-.31-.74-.31-1.03.31-1.03,0-1.91-.43-2.66-.14-.89-.14-1.91-.74-2.51-.89-.72-.43-1.75-.29-2.78l-.14-.14c-.31-2.06-.74-3.97-1.03-6.03-.45-2.37-1.48-4.43-3.54-5.6-1.32-.57-1.91-.57-3.23-.57-1.17.14-2.49.43-3.66.72-.45,0-1.2.17-1.63.6-1.32,1.17-2.51,2.35-3.83,3.69-.43.57-.89,1.6-.57,2.35.29.74,0,1.32-.31,2.06-.14.74-.29,1.32-.29,1.91-.29,1.17-.43,2.35-.43,3.37,0,2.35-.17,4.71.14,7.06.29,1.63.29,3.37.29,5.15.14,3.37.6,6.6.89,9.86,0,1.03.57,1.91.43,2.94-.29,1.46-.14,2.78-.14,4.12.14,2.35.29,4.69.6,6.89,0,.74-.14,1.34-.74,2.06-1.77,2.06-3.37,4.12-5,6.17-2.94,3.25-5.58,6.77-8.38,10.15-.29.45-.74.89-1.03,1.34-3.54,4.12-6.92,8.09-10.29,12.2-2.2,2.49-4.57,5.15-6.77,7.63-2.35,2.66-4.69,5.15-7.06,7.8.45.43.14,1.03-.43,1.46-.6.45-.89.89-.89,1.63h0ZM387.4,1238.83c.6,0,.6.43.6.89.14,0,.29.14.29.29-.14.29-.43.6-.57,1.03v-1.17c-.45-.29-.31-.6-.31-1.03ZM385.05,1240.6v-.14h.29c.14.14.45.14.74.29,0,0-.14.29-.29.43-.45.14-.74-.14-.74-.57h0ZM386.83,1233.83c.14.43.14.6.29.74,0,.14-.29.29-.29.29-.14,0-.31-.14-.31-.29-.14,0,.17-.31.31-.74ZM367.56,1241.17v-.14s.29-.14.14,0v.14h-.14ZM390.94,1233.68h.14l-.14.14h-.14l.14-.14ZM376.08,1242.2l.14-.14v.14h-.14ZM424.16,1158.4c.14.74.14,1.48.31,2.2.57-.57,1.17-.89,1.6-.89.31,0,.6.17.6.6.57,1.03,1.32,1.63,1.91,2.35.43.45,1.17.74,1.75.89.89.14,2.06.14,3.09.31,1.48-.74,1.91-.45,3.25-.6,1.32-.14,1.17-.29,2.35-.74.29-.14.43-.14.57-.14.31,0,.45,0,.45.29.29.31.29.45.74.17.72-.31,1.32-.45,1.89-.45.89,0,1.63.14,2.23.45v.14c.14-.14.14-.45.29-.45.29-.14.6-.43.89-.43.14,0,.29.29.29.57,0,.17,0,.31-.14.45l-3.09,11.89c-.14.45-.29,1.03-.45,1.48-.14,1.77-.86,3.69-1.32,5.58-.29,1.03-.74,2.23-.89,3.4,0,1.17-.43,2.49-.89,3.8-.43.74-.57,1.63-.86,2.37-.6,2.2-1.03,4.26-1.63,6.32-.6,2.2-.74,4.4-1.91,6.46,0,.31-.14.6-.14.74-.14,1.17-.6,2.35-.74,3.37-1.32,5.46-2.78,10.89-4.12,16.32-.43,1.63-.57,3.23-1.17,4.86-.89,3.52-1.77,7.06-2.8,10.74,0,.86-.43,1.75-.43,2.63-.45,1.63-.14,2.94,1.32,3.54.31.14.45.29.6.57.74,1.17,2.63.45,3.37,1.63.14.14.45.14.74.14h.29c1.03-.6,2.2-.14,3.37-.89.6-.29,1.34-.14,1.91-.43.89-.17,1.63-.74,2.2-.6.6-.43,1.2-.89,1.63-.89.29,0,.6.29.89.74,0,.14.43.14.89,0,.72-.14,3.23-.6,3.83-1.17.57-.6,1.03-1.17,1.75-1.48.45-.72.74-1.32,1.03-2.06,0-.14.14-.29.31-.43,1.6-1.32,2.2-4.71,2.2-6.77.29-.74.43-1.46,1.17-2.06.74-.57.74-1.17.43-1.6-.14-.45-.43-.6-.43-1.03-.14-.31-.14-.89,0-1.03.14-.17.29-.17.29-.17.29,0,.45.17.74.31,0,.14.29.14.43.14,0-.29-.29-.6-.43-1.03,0-.45.14-.6.57-.6.17-.14.45,0,.6.14v-.14c.14-.29.43-.72.43-1.17.45-1.03.45-2.06-.43-2.63-.14-.17.14-.31,0-.45.43-.29.74-.43,1.03-.57,1.03-.6,1.17-1.03.6-1.77-.45-.45-.89-1.03-1.34-1.63-.29-.43.14-.89.6-1.03.43-.14.89-.14,1.32-.14.74-.29,1.17-1.03.89-1.6-.43-.74-.43-1.91-1.46-2.51-.31-.14,0-.74.43-.89q1.03-.29.89-1.17c.43-.14.74-.43,1.32-.74-.14-.43-.57-.72-.29-1.03.43-1.03.29-1.75-.29-2.35-.17-.29-.45-.6-.45-1.03,0-.74.14-1.63.14-2.49,0-.45.45-1.2,1.03-1.2.14,0,.31.17.31.31.14.72.29,1.32-.31,2.2-.14.14-.14.57-.14.89-.14.29.45.43.6.29.89-.43,1.17-1.03,1.17-1.77,0-.29-.14-.57,0-.89.43-1.17,1.17-2.2,1.17-3.37.74-.89.74-1.6.45-2.35-.17-.45-.17-.89.29-1.34,1.32-1.89,1.6-3.8,1.46-5.58,0-.43,0-.74.31-1.17v.14c.57-.6,1.03-1.32,1.03-2.06.29-.6.43-1.32.57-1.91.45-.89.29-1.46-.29-1.91-.45-.43-.74-.72-1.32-1.17-.31.6-.74,1.03-1.03,1.48h-.31c.31-.89.45-1.77.74-2.8.74.43,1.32.89,2.06,1.32.29-.57.29-1.17.6-1.6.86-.89.57-1.63.14-2.23-.45-.29-.6-.57-.89-.89-.6.17-.45,1.05-1.03,1.34-.14-.14-.14-.29-.14-.29l1.17-3.97c.14,1.6.29,1.6,1.6,2.49h.45c0-.14.29-.29.29-.43,0-.17-.14-.31,0-.45,1.17-1.77,1.48-3.37.89-5-.29-.72.14-1.17.89-1.75,1.17-.89,1.32-1.63,1.03-2.8-.14-.45-.29-.89-.6-1.48.89-.86,1.91-1.6,2.51-2.78-.14-.6-.31-1.03-.6-1.48-.43-.89-.14-1.6.6-2.63.29-.6.72-1.03,1.32-1.2.6-.14,1.03-.43,1.46-.29,1.77,0,2.94-.14,4.71-.74h.29c.89.17.74.17,1.48.31h1.32c.6,0,1.17-.14,1.77-.31.29,0,.89-.14,1.32-.14.6.14.89.14.89.14,0,0-.43-.14,1.03-.14.89-.14,1.63-.43,2.49-1.17l-.14.14c.6-.43.6-1.6,1.77-1.46l.14-.14c.74-1.63,2.06-2.94,1.91-4.71-.14-.74-.29-1.46-.43-2.06-1.63-4.86-7.8-4.86-12.06-4.86-5.6,0-11.32.17-16.92.31-4.69.29-9.26.72-13.95,1.03-5.15.43-10.74,1.32-15.89,2.49-2.06.6-3.97,1.03-6.17,2.35.14,1.03-.29,1.77-.89,2.51-.57.29-1.32.74-1.91,1.03-.57,1.32-1.6,2.2-2.35,3.23-.45.74-.74,1.46-.6,2.2h0ZM456.08,1215.88c.43,0,.72-.14.86,0,.45.31.6.74.89,1.2,0,.14-.14.43-.29.43s-.43.14-.6,0c-.43-.29-.72-.89-.86-1.63ZM462.25,1194.27c0,.14.14.45,0,.74-.17.6-.45,1.17-.74,2.06-.29-.74-.29-1.32-.29-2.06.14-.29.86-.89,1.03-.74ZM470.18,1162.23c.17-.29.6-.74.74-.43.14.14,0,.29,0,.57-.14.45-.43.74-.57,1.17h-.31c0-.43,0-.89.14-1.32h0ZM467.26,1173.12c.14-.45.14-.89.14-1.2.14-.43.29-.72.29-1.17h.6c-.31.74-.45,1.48-.89,2.37h-.14ZM460.03,1202.22c.17,0,.31,0,.45-.14-.14,0-.14-.14-.14-.29,0-.31.14-.6.43-1.03.45.14.45.57.29.89,0,.14-.29.29-.57.43-.14.14-.14.29-.29.43,0-.14-.17-.14-.17-.29h0ZM457.83,1211.19c.14,0,.31-.14.31-.14.14.14.29.29.29.43.14.29,0,.6,0,.89-.14-.14-.29-.14-.6-.29-.14-.31-.29-.6,0-.89ZM454.02,1226.62c0-.14.14-.29.14-.43h.29c.14.14.43.29.43.57,0,.14-.14.29-.14.45h-.14c-.29-.17-.43-.45-.57-.6h0ZM460.77,1198.55l.29-.17c.17,0,.31.31.31.45-.31.14-.45.29-.6.29,0-.14-.14-.29,0-.57ZM454.74,1221.91c.14,0,.31-.14.45-.14s.14.31.29.31c-.14.14-.29.29-.43.29,0-.14-.17-.29-.31-.45ZM458.43,1209.27c.14.14.29.14.57.29-.29.14-.43.31-.57.31-.14-.17,0-.31-.14-.45l.14-.14ZM456.94,1164c.17-.14.31-.31.45-.31,0,.17.14.31.14.31-.14.14-.43.14-.6.29v-.29ZM468.72,1168.69h.14c.14,0,.14.14.14.14l-.14.17s-.14-.17-.14-.31ZM463.71,1187.52q0,.14-.14.29h-.14c0-.14.14-.14.29-.29h0ZM463.14,1190.15l.14.14h-.14v-.14ZM462.97,1192.21h.17v.14l-.17-.14ZM479.44,1241.63c.6-.31.89-.6,1.34-.6.57,0,.89.45.89.89-.17.74,0,1.63-.31,2.35-.14,1.34.14,2.37.31,3.4.29.72.72.72,1.32.72,1.03,0,1.77-.43,1.91-1.6.43-2.66,1.17-5.46,1.03-7.94,0-.6.29-1.17.74-1.63.43-.43.72-.86.72-1.32.14-1.32.6-2.8.74-4.12.43.43,1.03.89,1.46,1.17-.72,1.48-1.46,2.66-.86,3.83.14.14-.17.6-.17.89-.43,1.03-.86,2.06-.29,2.94h.14c-.43.72-.89,1.32-1.03,2.06-.29,2.35-.43,4.69-.57,7.06-.14.72.14,1.03.57,1.03.14,0,.45,0,.74-.17.6-.29,1.32-.57,2.06-.86.29-.74.6-1.48.74-2.06.29-.6.14-.89-.31-.89h-1.17c-.14,0-.29-.31-.14-.45,0-.14.14-.29.14-.29.45-.14.6-.14.89-.14,1.03-1.03,1.91-2.06,2.06-3.69,0-1.17.74-2.35,1.17-3.52.45-.14.31.29.6.43.74.14.89.45.57,1.34-.43,2.06-.43,4.12-1.46,6.32,0,.43.14.89.74.89.72,0,1.6-.6,1.75-1.2.31-.43.45-.72.74-1.03.45-.14.74-.14,1.17-.14h.45c.14.14.29.45.57.45.14,0,.14-.14.31-.14.43-.6-.31-1.03.43-1.63.6-.6,2.06-3.09,2.2-3.97.45-1.77.74-3.37,1.17-5.15.31-1.32.31-2.49,1.48-3.83.29-.43.43-1.17.74-1.91.14-.29,0-.57.43-.72.29.14.6.29.89.57.43-.72.89-.43,1.32-.57.45-.74.89-1.34.74-2.06,0-.45.14-.89.14-1.17.43-1.2.89-2.23.43-3.25-.14,0,.17-.29.31-.43.14,0,.43-.14.57-.14.14.14.31.14.45.29.72,2.06,2.2,3.54,2.49,5.89.14.74.74,1.32,1.03,1.91.14.43.45.72.6,1.17,1.32,2.63,2.49,5.15,3.52,7.94.74,2.2,1.63,4.4,2.8,6.32.43.74,1.03,1.17,1.91,1.17.14,0,.43-.29.57-.43,0,0,0-.31-.14-.31-.29-.14-.72-.14-1.03-.43-.14-.14-.14-.45,0-.74.31-.14.74-.43.89-.29.74.43,1.17,1.03,1.63,1.91.43,1.46,1.46,2.63,3.37,2.63.43,0,.89.14,1.17.31.6-1.77,2.06-1.77,3.37-1.77-.29-.45-.72-.45-1.03-.45-.72.17-.43-.43-.29-.86.6-.31,1.03-.6,1.63-.89.89-.31,1.46-1.03,1.75-1.77,0-.29.17-.43.17-.6h-.17q.17-.14.17-.29c.14,0,.29.14.43.29v-.14c.29.14.6.14.89.31,0-.31.29-.6.29-.89.29-.14.6-.31.74-.31.29,0,.43.17.74.45.89-1.03,1.6-1.91,2.2-2.94q1.6-2.2.43-4.12c.14-.29.45-.6.6-.89.29-.29.14-.43,0-.74.14-.43,0-.72-.14-1.03-.6-.43-.89-1.03-1.03-1.75.14-.89.14-1.03.89-1.48.57-.14,1.03-.43,1.6-.74.6-.43.6-1.03,0-1.32h-.74c.17-.74.45-1.46.17-1.91-.74-1.03-1.63-2.06-2.66-2.94-.29-.29-.89-.43-.89-1.17-1.03-.43-1.32-1.6-1.91-2.35-1.17-1.32-2.35-2.51-3.52-3.69-.14-.14-.31-.29-.45-.57-.14-1.03-.72-1.34-1.6-1.77-.31-.14-.6-.6-.6-.89.14-.89-.29-1.32-1.17-1.6-.29-.17-.6-.45-.6-.74-.29-1.77-1.46-2.8-2.35-4.12s-1.77-2.51-2.63-3.83c-.6-1.03-1.63-1.91-1.63-3.23.29-.29.74-.6,1.17-.89,0,0,.45-.14.45,0,.29,0,.43.29.72.43.14,0,.6,0,.6-.14.29-.29.74-.72.74-1.03.29-1.17.86-1.91,2.2-2.06.14,0,.29-.14.43-.14.74-.43,1.17-.89,1.17-1.6,0-.31,0-.89.14-.89,1.2-.45.89-1.48,1.48-2.2l.89.43c.29,0,.43.14.72.14,1.34-.43,2.23-1.32,3.09-2.2.74-.6.74-1.17.89-1.77.14-.29.31-.57.31-.72h.72c.45,0,.6-.17,1.03-.74.89-1.03,1.77-2.2,2.8-3.23s1.48-2.51,2.94-3.25c.29-1.32,2.2-1.89,2.2-3.37.14-.29.45-.57.89-.89.29-.29.6-.72.74-1.32.14-.74.57-1.32,1.6-1.46.6-.17,1.03-.89,1.17-1.34.6-.72,1.2-1.6,1.34-2.35,0-.89.57-1.46,1.03-2.2.43-1.17,1.17-2.2,1.03-3.37-.14-.31,0-.74.14-.89,1.03-1.03,1.03-2.06,1.17-2.94.29-2.37,0-4.71-.6-6.92-.29-1.03-.86-1.91-1.6-2.35-1.03-.45-1.32-1.34-2.06-1.77-.45-.29-.6-.74-1.03-.89-1.03-.57-2.35-1.03-3.69-1.46-4.83-1.77-11.03-3.4-16.32-3.4-5.86,0-14.12,2.23-19.1,5.15-1.34.74-2.51,1.34-3.83,1.77-.45.14-.74.29-1.03.45-2.35,1.6-2.35,1.75-2.8,4.26,0,.29-.14.43-.14.72-.14.6-.74.74-1.17.89h-.45c-.43,0-.72.14-1.03.74-.14.74-.57,1.46-.57,2.2-.45,1.48-.74,3.09-1.03,4.57-.74,2.49-1.48,5-1.91,7.49-.74,3.23-1.63,6.46-2.8,9.69-1.03,2.94-2.06,5.89-2.8,8.83-.86,2.8-1.6,5.6-2.35,8.38-.89,3.69-1.77,7.2-2.8,10.74-1.17,4.86-2.2,9.55-3.37,14.41-.6,2.2-1.32,4.55-1.63,6.77-.29,2.06-1.17,4.26-.86,6.17.14.43-.17,1.03-.31,1.46-.72,1.91-.72,3.83-.89,5.74h0ZM516.94,1172.09c.14-.74.6-1.63.29-2.37,0-.14,0-.43.17-.72.86-1.2.57-2.23-.17-3.09.31-.31.45-.74.74-1.2.45-.57.74-1.17.29-1.89-.43-1.2-.29-2.51.45-3.97.29-.74.74-1.2,1.46-1.48.89-.43,1.91-.89,2.94-1.03,1.48-.29,2.94-.43,4.43-.57.57,0,1.03.29,1.46.29.43.14.89.29,1.32.29.45,0,1.03-.14,1.48-.29.29,0,.72-.14.89-.14.57,0,1.03.29,1.46.72.43.6,1.32.89,2.06,1.34-.89,1.46-1.91,2.63-3.09,3.97-3.37,3.37-7.35,5.86-11.03,8.66-1.32,1.03-2.94,1.91-4.12,2.8h-.43c-.31,0-.45-.14-.6-.45,0-.29-.14-.57,0-.86h0ZM527.54,1243.54c.43-.31,1.17-.45,1.32-.6h1.03c.29,0,.74,0,.43.43,0,.31-.57.89-.72.89-.74,0-1.34-.14-2.06-.29-.17,0,0-.43,0-.43ZM539.57,1227.06c.74,0,1.34-.14,2.06-.29.17.29.31.45.31.74-.89.14-1.77.43-2.51.57-.14,0-.43-.14-.57-.29,0-.14.43-.57.72-.74ZM482.24,1247.2c.14-.57.29-1.17.45-2.2.43,1.03.72,1.46.89,2.06.14.14-.17.6-.17.74-.43.29-.57.14-.89,0-.14-.14-.14-.45-.29-.6h0ZM488.87,1228.97l.29-.14h.29c.14.45.14.89.31,1.32-.17.17-.17.31-.17.31-.14,0-.43.14-.43,0-.43-.31-.43-.89-.29-1.48h0ZM532.83,1145.02c-.31.29-.45.29-.74.29s-.43,0-.74-.14c.31-.29.6-.43.89-.43.14,0,.45.14.6.29h0ZM508.13,1219.13l.14-.45c.29,0,.57,0,.72.14.17,0,0,.31,0,.6.17,0,0,0-.29.14-.14-.14-.43-.29-.57-.43h0ZM533.11,1242.66l.29.29c0,.29-.29.74-.57.6h-.14l.43-.89ZM494.73,1232.8c.17-.14.31-.14.31-.14v.14c0,.29-.31.74-.45,1.03h-.29c.14-.43.29-.74.43-1.03ZM489.44,1244.41c.14,0,.31.17.74.31-.43.14-.6.29-.74.43-.14,0-.29-.14-.43-.14.14-.14.29-.43.43-.6ZM496.07,1233.23c0,.17,0,.31.14.45-.14.14-.29.29-.29.57-.17-.14-.31-.29-.31-.43s.14-.43.45-.6h0ZM481.06,1237.06c0-.14.14-.29.14-.43l.29.29c0,.14-.29.29-.29.45-.14,0-.29-.17-.14-.31ZM531.2,1245.29v.31h-.43c0-.17.29-.31.43-.31ZM490.33,1239.43l.29-.31c.17,0,.31.14.31.14q-.31.17-.6.17h0ZM505.9,1223.68c.17-.14.31-.14.6-.29,0,0-.14.14-.14.43-.14-.14-.29-.14-.45-.14h0ZM552.66,1164.57c-.14.14,0,.14,0,.31,0,0,0,.14-.14.14,0,0-.14-.14-.14-.31l.29-.14ZM488.41,1240.6c0,.14.14.29.31.29q-.17.14-.17.29c-.14-.14-.29-.14-.29-.14.14-.14.14-.29.14-.43h0ZM540.32,1225.16q.14,0,.29.14s-.14.14-.29.14v-.29ZM486.95,1210.59c.14,0,.29,0,.29.14h-.29v-.14ZM529.14,1145.31h.45v.17h-.31l-.14-.17ZM529.14,1156.05l.29-.29c0,.29-.14.29-.29.29ZM541.8,1178.55l-.17.14v-.14h.17ZM528.11,1242.51v-.17l.14.17h-.14ZM549.59,1243.54c0,.29-.17.72,0,1.03,0,.29.14.43.29.57.57-.14,1.17-.29,1.91-.29-.74,2.94.89,4.26,2.49,5.43,1.17,0,2.2-.57,2.94-1.6.29-.45.89-1.34,1.48-1.34.14.31.29.45.57.74.45-.74.74-1.03,1.48-1.32.86-.31,2.49-1.48,3.23-2.2,1.03-.89,1.32-2.06,2.35-2.8.6-.6,1.17-1.03,1.17-1.77.14-.14.29-.57.6-.74,0-.14.29,0,.43,0,.14-.43.45-.72.74-1.17.29-.29.89-.43,1.17-.72.14-.45,0-.74.14-1.2h.29v-.14c.17-.43.17-.89.6-1.17.14-.43.89-.6,1.32-.89,0-.89-.14-1.77-.14-2.49.45-.31,1.34-.74,1.63-1.03.29-.74.74-1.17,1.17-1.63-.43-1.17.89-1.91,1.32-2.8.14-.14.31-.29.45-.14v.14h.14c.14-.86.14-1.6.74-2.35,0,.29.14.6.14.89,1.46-.89,1.75-2.2,2.49-3.09,1.03-.43,1.91-.43,2.94-.43.74,0,1.32,0,1.91-.31.74.31,1.46.31,2.35.31h.89c.6,0,1.17,0,1.77.14-.45,2.2-.74,4.26-1.48,6.17-1.17,3.8-2.06,7.63-2.94,11.46,0,.14,0,.29-.14.43-.29,1.91-.72,3.69-.72,5.46-.17.89,0,1.6.57,1.75,1.17.45,1.17,1.34,1.03,2.37.14.72,0,1.6,1.03,1.91.29-.31.89-.6,1.17-.89,1.34.57.14,2.06.6,3.09.29.29.89.43,1.17.74.6.43,1.03.57,1.77.57s1.6-.29,2.49-.74c.31-.72.31-1.32,0-1.91.74-.29,1.17-.72,1.34-1.32.29-.74.43-1.46.86-2.35,0-.14.17-.29.6-.74,0,.45.29.74.14.89l-.89,1.77c-.14.14,0,.29-.14.43.74,0,1.17.14,1.32.74,1.2-.45,2.23-1.32,3.4-1.17.29,0,.89-.31,1.17-.89.14-.74.74-1.17,1.46-1.17.31-.14.74-.31.6-.6.14-.43.14-.74.74-1.03.43-.29.86-.89,1.03-1.32.14-.29,0-.74,0-1.17.43-.45.86-.74,1.32-1.03-.14-.6-.29-.89-.45-1.17.31-.6,1.2-.74.6-1.34,0,0,0-.14.14-.29.89-.6.6-1.46,1.17-2.35.31.29.6.43.89.57.31.14.6.14.89.31h.14l-.14.14h.14v-.14c-.43-.6-.72-1.2-1.17-1.63-.14-.29-.6-.29-.89-.6-.14-.14-.14-.43,0-.57.14-.14.45-.29.6-.29.43,0,.89.14.89.29.29.43.57,1.03.89,1.46-.17-1.03.43-1.75.72-2.63.6-1.03,1.03-2.37,1.03-3.4-.29-1.17-.14-2.35.31-3.52.14-.29-.17-.45-.31-.6-.43-.72.31-1.03.89-1.46-.14-.74-1.17-1.03-.57-2.2.43,0,.72-.14,1.32-.14,0-.45,0-.89-.14-1.34.43-.14.72-.29,1.03-.43.57-1.17-.89-1.63-.31-2.8h.6c0-.43,0-.89-.14-1.17.29-.14.57-.29.74-.29h.14-.14c1.32-1.63.29-2.8.43-4.12.6-.45,1.91-4.57,2.06-5.31,0-.57,0-1.32.43-1.89.45-1.03.45-2.06.89-3.25.45-2.2,1.17-4.55,1.48-6.89.29-1.03.14-2.23,1.03-3.09,0-.89,0-1.77.57-2.8.45-.74-.29-1.48,0-2.06.31-.74,1.03-1.48,1.03-2.35v-.74c.14-.89.6-1.91.31-2.66-.31-.89.43-1.75.43-2.63.14-1.03.29-2.23.6-3.25.29-1.17.57-2.2,1.46-3.09-.14-.86-.74-1.46.29-2.49.45-.43.45-1.17.14-1.77-.14-.43.17-.72.31-1.32.14-1.46,1.03-2.94.57-4.4-.14-.14-.29-.31-.14-.31,1.03-1.32.14-2.2,0-3.23,0-.29.14-.89.14-1.32.17-.29.6-.74.45-1.03s-.6-.6-.74-.89c-.14-.14-.14-.29-.29-.43l1.03-1.03c-.45-.74-.74-1.2-1.03-1.91,0-.31.14-.89.14-1.34.43-2.2-.29-4.12-1.77-5.43-.14-.29-.43-.57-.43-.89.29-1.17-.14-1.46-1.17-1.46-.89-.14-1.48-.45-1.91-1.34,0-.14-.45-.29-.6-.29-.74.14-2.2.45-2.2.29-.14-.57-.43-.57-.89-.57h-1.6c-.31-.14-.6-.14-1.03-.14-.74,0-1.63.29-2.37.57-.57.89-1.32,1.63-2.06,2.51-.29-.14-.43-.14-.72-.14-2.66,0-7.51,5.43-8.69,7.49-.43,1.03-1.17,1.91-1.77,2.8-4.83,8.09-9.69,16.18-14.69,24.41-4.4,7.2-8.83,14.55-13.69,21.75-2.2,3.23-3.95,6.6-6.32,9.86-2.78,3.8-4.69,8.09-7.49,11.89-.29.31-.29.45-.6.74-3.23,5.29-6.03,10.72-8.66,16.32-.6,1.17-1.03,2.49-.29,3.69h0ZM591.32,1201.93c.17-.29.31-.45.45-.45.29,0,.43.31.74.17.72-.45,1.32-1.03.72-1.77l.31-.14h-.14l2.2-3.09c.43.29.89.57.72,1.32-.43,1.46-.72,2.8-1.03,4.26,0,.14-.14.29-.43.6-.6,0-1.32.14-2.06.29h-.29c-.89,0-1.2-.43-1.2-1.17h0ZM596.49,1196.33c-.6-.57-.6-1.03-.6-1.6.74.29.74.72.6,1.6ZM555.62,1248.52c.14-.14.29-.29.43-.29s.29.14.43.29c-.29.17-.29.45-.57.6-.29.14-.45,0-.6,0,0-.14,0-.43.31-.6ZM589.58,1247.2c0-.14.29-.29.43-.89v.89c0,.14-.14.14-.29.29,0-.14-.14-.14-.14-.29h0ZM573.69,1232.8c.31-.14.14-.29-.14-.29,0,.14-.14.29-.29.43.14,0,.29,0,.43-.14h0ZM598.1,1245.29v-.43s.14,0,.29-.14v.43c-.14,0-.14.14-.29.14ZM590.01,1245.15l.14-.14q0,.14.14.29c-.14,0-.29,0-.29-.14h0ZM770.41,1199.58c.17,0,.17-.17.17-.17l-.17.17ZM718.22,1223.39l-.29.14.29-.14ZM765.86,1214.85c.29-.86,1.17-1.89.57-2.78-.72,1.03-.43,1.91-.57,2.78ZM757.49,1248.23c0-.89-.31-1.46.14-2.2h.29c1.03,0,1.03,1.03,2.35,1.03-1.32-.43.17-1.17-.14-1.77-.14-.57,0-1.32-.14-1.91.45-.43.74-.86.89-1.32.74-.74.6-1.32,0-1.91-.43-.43-1.17-.57-1.17-1.32.43-.6.74-.74,1.03-.74s.74.31,1.03.31q.29-1.2-.14-2.94c.29-.6.57-1.2,1.03-1.77.57-.89.43-1.48.29-2.2-.43-.74-.74-1.34-.74-2.2,0,.14,0,.29.14.29.17-.14.31-.14.31-.29.29-.74.29-1.48,1.17-1.77v-1.91c.29-.74.74-1.63.74-2.2,0-.74-.45-1.32-.6-2.06v-.45c.6-.43,1.17-1.03,1.91-1.6.29-1.32.29-2.51,0-3.69-.14-.14,0-.57,0-.74-.74-.43-.6-1.03-.45-1.75.45-1.34.89-2.8.6-4.12-.14-.31.14-.6.6-.74.29.14.57.29.86.29-.29-.14-.57-.14-.86-.29.14-.29.29-.6.29-.89.14-1.03.29-2.2.43-3.23,1.17-1.32.89-2.66.89-3.97.29-.29.74-.57,1.03-.89,0-.43-.57-.72.45-1.32.29.6.43,1.03.72,1.63.17-.74.17-1.34-.29-1.91-.29-.74-.29-.89.89-2.06l.14.14v-.14h-.14c.14-.31.29-.6.29-.74.14-.45.31-.74.6-1.03l.14.14-.14-.14c.57-1.03.14-1.63.14-2.51q.74-.72.29-1.46c.31-.14.6-.29.74-.43.29-.89.43-1.63.74-2.37.57-.89.72-1.6.29-2.35-.43-.6-.14-1.03.29-1.63.31-.14.6-.43.74-.57q-.6-1.32-.14-2.66c.14-.57.29-1.17.57-1.91q.45-1.6-.14-3.23c1.03-.57,1.77-1.32,1.77-2.35s.43-2.06.89-3.09c.57-1.63.74-3.23,1.77-4.86.14-.14,0-.29.14-.43.14-1.03.14-1.91.29-2.8.43-.45.74-.89,1.17-1.17-.14-1.17-.14-2.06-.14-3.23.14-.17.43-.45.74-.6.72-.43,1.17-1.17,1.03-1.77-.31-1.17.29-2.06.57-3.09.31-1.03.45-2.06.74-3.09.6-1.32-.14-2.06-.74-2.78-.29-.17-.57-.31-.89-.45-.43-.43-.86-.89-.43-1.91.29-.57-.14-.74-.74-.74-.14.31-.43.74-.89,1.2.17-.74.17-1.34-.57-1.34h-.6c-.14,0-.29-.29-.57-.43-.45-.45-1.03-.74-1.63-1.17-.29-.31-.57-.31-.89-.31-.14,0-.43,0-.72.17-1.34.57-2.51.57-3.83.86-.14-.29-.29-.57-.45-.86-1.32.72-2.78,1.03-3.97,2.35,0,.14-.14.29-.29.29-4.55,1.77-8.23,9.4-9.4,13.83-1.77,5.89-3.23,11.89-5.15,17.78-.29.45-.29.89-.6,1.32-.89.17-1.75.17-2.49.17-1.77.14-3.37.14-5,.29-3.69.14-7.35.43-11.03.74h-.57c-.74-.17-1.2-.31-1.2-1.03.45-1.03,1.03-1.77,2.08-1.63.14,0,.43,0,.72-.14-.14-.14-.29-.29-.29-.45.14,0,.29-.14.43-.14-.14.31-.14.45-.14.6h.14c-.14-.14-.14-.29,0-.6.31-.72.89-1.75.89-2.35,0-.89.31-1.46.74-2.2.14-.14.43-.45.29-.6-.14-1.03.6-2.35,0-3.23,0-.14.14-.29.14-.43h1.03c1.2-1.63-.14-2.37-.72-3.4.43-.14.57-.14.89-.14,1.32-.43,1.6-.74,1.32-2.06,0-.29-.14-.57.43-.89.14-.14.31-.43.31-.57-.17-.74-.31-1.34.57-2.06,0-.14,0-.31-.14-.45-.29-.57-.14-1.03.43-1.75.17-.31.31-.74.17-1.03,0-.74-.31-1.34-.6-2.23-.14,0-.43.17-.6.17-1.03,0-1.46-.89-1.89-1.63-.31-.43-.31-1.03-.6-1.63-.89,0-.29-1.17-.74-1.32-.89-.29-1.75-.43-2.49-.57h-.45c-1.32.43-2.78.57-3.66,1.75-.14-.14-.31-.43-.6-.43-.14,0-.29.14-.57.57,0,.17-.31.45-.45.74-.57-.74-1.03-1.32-1.46-1.91-1.34.45-2.37,1.34-3.4,2.06-.29,1.48-1.75,2.06-2.92,2.8-.31.29-.74.6-1.2,1.03-.57.74-1.03,1.46-1.6,2.2-.89,1.63-1.63,3.23-2.51,4.86-1.6,2.8-2.94,5.58-3.8,8.38-.6,1.91-1.34,3.83-2.06,5.74-.45.89-.74,1.75-1.03,2.49-.45,1.32-.89,2.8-1.63,4.12-4.12.89-8.23,1.91-12.35,2.94-1.32.29-2.66,1.03-3.97,1.17-5.43,1.17-13.38,4.26-18.09,7.06-3.09,2.35-5.29,5.15-6.89,8.69-.6,1.17-.6,1.75.43,2.35.29.29.6.43.74.89,1.03.43,2.06.89,2.63,1.91.14.14.31.14.31.29.72.29,1.46.6,2.35.6.29,0,.57,0,1.03-.17,1.46-.43,2.49-.72,3.37-.72.74,0,1.32.14,2.2.43.6-.57.89-1.03,1.48-1.46,1.03.14,1.91.29,2.8.29.29-.43.72-.89,1.17-1.32.57.29-.45,1.46.72,1.46.31-.43.45-1.03,1.2-1.17,1.32-.14,2.35-.29,3.66-.6.74-.14,1.32-.29,2.06-.29.45,0,.89.14,1.48.29,0,0,.14.17.29.17s.43-.17.74-.31c.29-.14.43-.29.72-.29.45,0,.74.43,1.17.29.6-.14.45.45.74.45.31,0,.6-.45,1.03-.6.14,0,.45-.14.74-.14s.6.14.74.43c-.45,1.63-.89,3.25-1.48,5-.72,2.8-1.6,5.6-2.49,8.54-.45,1.6-.6,3.23-1.03,4.83-1.17,4.28-1.48,8.54-2.8,12.8-.14.29-.14.43-.29.74-.31,1.75-.45,3.37,1.03,4.26-.14.89-.14,1.77,0,2.49,0,.31,0,.6.43.6.14,0,.45-.14.74-.29.14-.74.57-1.77.74-2.66.14-.14.29-.14.29-.14.43.29.89.57,1.32,1.03-.29,1.17-.57,2.35-.89,3.52.74.45,1.34.89,1.77,1.34.74.72,1.91.14,2.66.72,0-1.03.14-1.6.14-2.49h1.17c0-.29,0-.6.14-.89.45-.14.6,0,.6.43,0,.89.14,1.63.14,2.37.43.14.74.14,1.17.29.74-.74,1.32-1.46,2.2-2.06.74-.6,1.03-.74,1.32-.74.17,0,.31,0,.6.31.14.14.29.29.43.29.17,0,.31-.14.6-.29,0-.45,0-1.03.29-1.63.31-.74,1.17-.6,1.91-1.03.29-1.17.6-2.35.89-3.52.43-1.03.74-2.23,1.17-3.25,0-.14.14-.29.6-.43.29,1.32-1.03,2.8-.6,4.12.29-.14.74-.29.89-.6.43-.43.29-1.17,1.17-1.46.14-1.03,1.34-2.06,1.03-3.09,0,0,.14-.29.31-.45.43.31.86.45,1.32.74.29-.29.43-.57.43-.74.14-.29,0-.57,0-.86v-.17c-.72-.29-1.03-.72-1.03-1.46h.6c.14,0,.29.14.43.14.31-.57.6-1.17.45-1.77.43-.43.14-1.03.43-1.32.74-.57,1.17-2.49,1.17-3.37-.14-.6-.29-1.17-.57-1.77.14-.43.43-.57.57-.74.89-1.32.89-2.35.14-3.37-.14-.14-.14-.29-.29-.43-.14,0-.29,0-.43-.17-.14,0,0-.29,0-.43,0,0,.29-.14.29,0,.14,0,.14.29.29.43.31-.14.45.17.74.17.14,0,.29-.17.6-.31-.31-.57-.89-1.17-1.34-1.91-.29-.43-.14-.72.6-1.03.74.17.57,1.2,1.32,1.34.14-.31.14-.45.14-.6-.29-.43-.57-1.03-.89-1.46-.43-.6-.14-1.17.31-1.77.43.14.89.29,1.46.43.74-1.46,1.17-2.92.29-4.12-.14-.14.17-.29.17-.43.29-.14.57-.14,1.03-.29.14-.74.43-1.63.29-2.2.14-.74-.14-1.34-.45-1.91.45-.6.74-1.03,1.48-1.17,1.17-.17,2.63-.6,3.97-.6.43.14.89-.43,1.32-.43.14,0,.29,0,.43.14.17.14.45.14.6.14.43,0,.89-.14,1.32-.14.14,0,.45.14.6.29.74-.14,1.46-.29,2.06-.6.29.31.29.89.89.6.29-.29.57-.43.89-.43.14,0,.29.14.43.29.14.14.29.14.45.14.14,0,.43-.14.86-.29h.6-.14c.29-.14.57-.14.89-.31.14,0,.29-.14.43-.14s.29.14.14.6h.31c.86,0,1.32-.89,2.06-1.17.29.29.43.57.86.57.45.14.89.14,1.48.14-.14,1.48-.29,2.8-.89,4.12-.74,1.63-1.03,3.25-1.46,4.86-1.91,7.06-3.97,14.12-4.86,21.18,0,.29-.14.57-.14.89-.45.72-.6,1.32-.6,2.06-.57,2.63-1.03,5.15-1.46,7.78-.31.89-.31,1.77-.45,2.8-1.03,3.09-1.46,6.03-1.91,9.12-.14,1.63-.57,3.23.89,4.12,0,.14.14.29.14.45.45,1.46,1.2,2.92,2.23,3.95.14.31.43.6.86.45.45,0,.6-.45.74-.89.14-.6.45-1.32.45-2.06.14,0,.14-.14.29-.29-.14.14-.14.29-.29.29.57.14.57.6.43,1.03-.29,1.17-.6,2.2-.14,3.09,1.03.43,1.6.74,2.06.74.57,0,.89-.45,1.77-1.34,1.17-1.6,1.6-1.89,3.37-1.89.74-.31,1.6-.45,2.06-1.03.57-.74,1.17-.31,1.77-.6.86-.74,1.91-.74,2.78-1.46q.17-1.03,1.03-1.34c.6-1.17,1.91-2.35,1.91-3.66q0-.17.14-.31c.45-.29.74-.72.31-1.17-.31-.29,0-.74.29-1.17.14-.43.6-.74.74-.89h0ZM762.63,1226.77h.14l-.14.14v-.14ZM771.44,1193.24c.17.14.31.31.31.45-.31,0-.31-.14-.31-.45ZM738.22,1156.94v.29l-.14-.14.14-.14ZM736.74,1158.25c.17.14.17.29.17.29-.17,0-.17-.14-.17-.29ZM733.51,1172.52c.14.29.14.6.31.89-.31-.14-.6-.45-1.05-.74.45,0,.74-.14.74-.14ZM668.08,1196.04c.14-.14,0-.29,0-.29.14-.14.29-.14.45-.14,0,0,0,.14.14.29-.14,0-.45.14-.6.14ZM671.02,1198.7c-.14-.14-.29-.14-.29-.31,0,0,0-.14.43-.14-.14.14-.14.31-.14.45ZM692.92,1231.91v-.14h.17l-.17.14ZM702.92,1234.26q0-.14.14-.29c0,.14-.14.14-.14.29ZM701.75,1237.37c-.29-.17-.43,0-.57.14,0-.14-.17-.31-.17-.31.45-.14.6-.29.74-.43.14,0,.6,0,.6.14,0,.45-.31.45-.6.45h0ZM703.38,1232.66l-.14.14.14-.14ZM703.81,1230.31c-.14.43-.14,1.03-.29,1.46,0-.14-.29-.14-.45-.29,0-.31.17-.74.74-1.17ZM701.9,1235.14q-.14,0-.14-.14s.14,0,.14.14ZM697.2,1244.41c-.31.17-.45.17-.45.17q0-.17.14-.31s.17,0,.31.14ZM701.9,1229.28c0-.17-.14-.17-.14-.31l.29-.14c.17,0,0,.14.17.14q-.17.14-.31.31h0ZM701.01,1233.54c.17,0,.17-.14.31-.31.14.17.57.31.89.45q-.17.14-.17.29c-.43-.14-.57-.29-1.03-.43h0ZM700.72,1235.14c0-.14.14-.14.14-.14,0,.14-.14.14-.14.14ZM699.69,1241.49c.29-.31.6-.6.74-.74.29,0,.57.14.43.57,0,.17-.14.31-.14.6-.43-.14-.74-.29-1.03-.43ZM701.18,1239.57c-.17-.31-.45-.6-.74-.89.14,0,.29-.29.43-.45h.6c.29,0,.43,0,.43.17.31.29,0,.72-.72,1.17ZM716.76,1215.31c0-.14.14-.29.29-.29,0,.14-.29.29-.29.29ZM718.22,1223.39l-.14.14h-.14c0-.14-.43-.14-.29-.74q.57,0,.57.6ZM718.81,1218.39l-.14.14h-.14l.29-.14ZM734.54,1254.55h-.14c-.29-.43-.57-.72,0-1.32h.14c.45.14.45.45,0,1.32ZM767.18,1149.74v-.14.14ZM767.78,1147.68c0-.14,0-.31.14-.31,0,0,0,.17-.14.31ZM743.8,1251.03q.14-.29.31-.29c-.17.14-.17.29-.31.29ZM666.77,1202.96c-.14,0-.14-.14-.14-.14l.14.14ZM702.64,1245c-.43.29-.89.43-1.63.89,1.2,0,1.34-.45,1.63-.89ZM767.63,1210.16h.14-.14ZM767.32,1208.68c.31.45.31.89.31,1.48.43-.74.29-1.17-.31-1.48ZM717.5,1229.42c-.17.29-.31.57-.31.72.31-.14.74-.43.31-.72ZM717.5,1229.42v-.14.14ZM745.43,1261.32h.14c.74-.29.74-.89.89-1.46-.14.57-.29,1.17-1.03,1.46ZM768.49,1205.02c.17-.14.31-.29.31-.29q-.14,0-.31.29ZM771.75,1140.31l-.14.17q.14,0,.14-.17ZM745.71,1261.61q-.14-.14-.14-.29-.14.14-.14.29h.29ZM740.71,1200.16v-.29.29ZM779.38,1168.83v.17l.14-.17h-.14ZM772.04,1193.84h-.14.14ZM717.5,1229.42v-.14c-.17-.17-.31-.31-.45-.31.14.14.29.31.45.45ZM783.35,1201.64c.31.86.31,1.75.45,2.63.14.6,0,1.32.29,1.77.45,1.03.45,2.2.6,3.37.14.45.29.74.43,1.17.45.89,1.03,1.63.89,2.94,0,1.91.74,2.51,2.66,3.09.14.14.14.45.14.74.14,1.32.72,2.49,1.91,3.09,1.46,1.03,2.78,2.2,4.26,3.09,1.32.74,2.8,1.17,4.12,1.63,1.03.43,2.63,0,3.37,1.03.14.14.45.14.74.14h.57c.31,0,.74,0,1.34.14.29.14.57.14.89.14.72,0,1.46-.29,1.89-1.03.31-.14.31-.43.74-.6.14-.14.29-.14.6-.14.14,0,.29.14.29.45.43.29,1.03.43,1.46.43.74,0,1.48-.43,2.06-1.17.74-.89,1.48-1.46,2.37-1.46.29-.17.74-.6,1.17-.89.89-.74,1.63-1.48,2.49-2.2.6-.45,1.2-.74,2.06-.89,1.2-.14,2.37-.74,2.8-2.06,0-.14.14-.31,0-.45.14,0,.29.14.14.31.45-.6.74-1.2,1.34-1.77h1.03c.29-1.03.72-2.2,2.2-2.2,1.03-1.2,2.63-2.06,2.49-3.83-.14-.29.14-.6.14-1.03.6.29.89.57,1.48.74-.29-.89.29-1.48.57-2.23h1.2q0-1.17.72-1.89c.14-.45.6-.89,1.03-1.34-.29-.89.31-1.6.14-2.49-.14-.14.45-.6.74-1.03.6.43.89.74,1.48,1.03,0-.6-.17-1.32,0-1.91.14-.6-.6-.89,0-1.77.43.74,1.32.89,1.32,1.77q0,.14-.14.29l.14-.14v-.14c.14-.43.29-.89.14-1.17-.14-1.34.74-2.06,1.91-2.66,0-1.03,0-1.91.14-2.94.29-.14.6-.43.74-.57q1.17-.74,1.03-1.48v-1.6h.43c.29,0,.6-.14.6-.74.29-1.46.57-2.94-.14-4.4.86,0,1.32,0,2.35-.14-.29-.74-.45-1.34-.6-2.06.74-.6,1.48-.89,1.48-1.91s.29-2.23.57-3.25c.14-.86.6-1.75.89-2.63.45-1.48.6-2.8-.43-3.83-.14-.14-.14-.29-.14-.43.43-.45.86-.74,1.03-1.03.14-1.17.14-2.06.29-2.94,0-.74.29-1.63.14-2.2-.89-1.34.29-3.54-1.03-4.71,0-.14.14-.29.14-.43.29-.74,0-1.34-.29-1.77-.6-.6,0-1.32-.14-1.91,0-.6-.31-1.17-.6-1.63-.43-.43-1.03-.72-1.32-1.03-.74-.72-1.32-1.17-1.03-2.49.29-1.03-.45-1.77-1.32-2.06-1.34-.29-2.51-.74-3.83-.89-1.32-.14-2.51-.89-3.69-1.6-.57.29-1.17.43-1.6.43-.6,0-1.03-.14-1.63-.43-.74-.45-1.77-.45-2.94-.45s-2.49,0-3.83-.14c-4.98,0-14.1,4.86-17.49,7.94-2.63,1.46-4.55,3.66-6.32,5.72-4.12,4.28-7.94,8.83-10.72,13.83-.6,1.17-1.34,2.35-2.06,3.52-1.34,2.06-2.37,4.43-3.09,6.63-.6,1.6-1.03,3.23-1.77,4.86-.29.86-.45,1.75-.74,2.63-.14.89-.29,1.91-.74,2.94-.43,1.17-.72,2.2-.29,3.23.29.6.29,1.32-.14,2.06-.14.45-.14.74-.29,1.17-.6,1.2-.6,2.23-.31,3.25h0ZM779.23,1248.23c.6-.57.89-.74,1.2-.74.14,0,.29.17.57.31.6.43,1.48.43,2.2.43.45.74,1.34.45,2.06.6h1.03c1.03,0,1.91.14,2.94.29h1.91c.29,0,.74,0,1.03.14.14.14.74-.14,1.03-.29h1.03c.14.14.29.29.6.29.29-.14.57-.14.89-.14.72,0,1.17.14,1.89.14,1.03-.14,2.37-.29,3.4-.29,1.03.43,2.35.29,3.52.43h1.77c.89,0,1.6.14,2.2.74.74-.43,1.03-.89,1.63-1.32.29.29.29.57.57.72,1.03-.14,1.32-1.17,2.06-1.75.6.14.89.57,1.34.57h.57c.14-.29.6-.43,1.03-.72l.45.86c.29-.29.57-.43,1.03-.72-.17.29,0,.43.14.57.89-.72.89-1.46,1.17-2.49.14.43.14.74.29,1.17.74-.14,1.32-.43,1.77-.6.57-.57.57-1.17.43-1.75-.57-.31-1.32-.45-2.06-.45h-3.23c.29-.29.45-.29.6-.43.29-.14.57-.14.89-.14h1.03c.43,0,.86,0,1.32-.31.14,0,.57.17.89.31.29,0,.57.14.89.14.29,0,.86-.29,1.32-.45-.29-.57-.45-1.17-.45-1.6-.86-.45-1.89-.29-2.63-1.03.14-.29.29-.6.43-.74-.14-.14-.43-.14-.72-.14h.86c.31.14.6.29,1.03.29.45,0,.89-.29,1.03-.57.45-.74.6-1.17,0-1.63-1.17-1.03-1.89-2.35-2.49-3.69l-.29-.29q.14.14.29.14c-.14-.43-.43-.89-.89-1.17-1.46-.89-3.23-1.17-5-1.46-.57-.14-1.17-.14-1.77-.14-1.17,0-2.2.14-3.37.43-1.46.43-2.8.74-4.26.89-1.77.14-3.37.29-5,.57-3.97.6-19.55,3.25-19.55,8.83,1.77,0,3.83-.43,5.58-.43.6,0,1.2,0,1.63.14-.29.14-.74.29-1.03.29-1.32.14-2.66.14-3.97.29-.57.17-1.32.31-1.91.45-.89.29-1.46,1.03-1.46,1.91-.14,1.32,0,2.49.57,3.52ZM808.64,1187.67c-1.03-1.03-.29-2.06.45-3.23.86-1.63,1.75-3.4,2.35-5,1.6-4.57,7.94-12.95,12.64-12.95s.31,7.06,1.03,10c.31,1.46-.57,3.09-1.17,4.71-1.46,3.8-1.77,7.63-3.37,11.46-1.32,2.78-6.46,8.97-8.38,8.97s-2.94-2.8-2.8-4.71c0-2.2-.14-3.09-2.51-3.97,3.25-1.91.89-3.52,1.77-5.29ZM788.49,1180.61c.31-.6.45-1.03,1.2-1.48-.89,2.66-1.63,5.17-2.51,7.66h-.43c0-2.06,1.32-4.12,1.75-6.17ZM811.59,1223.68c.29-.43.6-.74,1.17-1.46.14.43.45.57.29.72,0,.45-.29.89-.57,1.2-.14.29-.74.57-.89.43-.43-.14-.29-.6,0-.89ZM818.36,1240.15c.14-.14.43-.14.89-.29,0,.43-.31.74-.6,1.03-.43.14-.74.14-.89-.14-.14-.14.14-.45.6-.6ZM817.9,1237.66v-.14c.31-.14.6-.31,1.03-.31.31,0,.6.31.74.6v.14c-.14.14-.29.14-.29.14-.31,0-.6-.29-.89-.29,0-.14-.29-.14-.6-.14ZM786.01,1191.93c-.29.6-.43,1.03-.6,1.46-.43-.43-.29-.86.6-1.46ZM810.27,1223.54c.14-.14.29-.29.43-.29.14.14,0,.29.14.43-.14,0-.29.14-.43.14l-.14-.29ZM780.43,1246.63v.29h-.17c0-.14,0-.29.17-.29ZM842.77,1191.33c.43-.14.29,0,.29.17,0,0-.14,0-.29-.17ZM846.43,1152.97v.14h-.14v-.14h.14ZM819.24,1170.32h-.17v.29l.17-.29ZM780.86,1244.72v.14h-.14l.14-.14ZM810.99,1187.95h.17v-.14l-.17.14ZM846.88,1161.8v-.17h.14l-.14.17ZM863.04,1158.4c.14.74.14,1.48.31,2.2.57-.57,1.17-.89,1.6-.89.31,0,.6.17.6.6.57,1.03,1.32,1.63,1.91,2.35.43.45,1.17.74,1.75.89.89.14,2.06.14,3.09.31,1.48-.74,1.91-.45,3.25-.6,1.32-.14,1.17-.29,2.35-.74.29-.14.43-.14.57-.14.31,0,.45,0,.45.29.29.31.29.45.74.17.72-.31,1.32-.45,1.89-.45.89,0,1.63.14,2.23.45v.14c.14-.14.14-.45.29-.45.29-.14.6-.43.89-.43.14,0,.29.29.29.57,0,.17,0,.31-.14.45l-3.09,11.89c-.14.45-.29,1.03-.45,1.48-.14,1.77-.86,3.69-1.32,5.58-.29,1.03-.74,2.23-.89,3.4,0,1.17-.43,2.49-.89,3.8-.43.74-.57,1.63-.86,2.37-.6,2.2-1.03,4.26-1.63,6.32-.6,2.2-.74,4.4-1.91,6.46,0,.31-.14.6-.14.74-.14,1.17-.6,2.35-.74,3.37-1.32,5.46-2.78,10.89-4.12,16.32-.43,1.63-.57,3.23-1.17,4.86-.89,3.52-1.77,7.06-2.8,10.74,0,.86-.43,1.75-.43,2.63-.45,1.63-.14,2.94,1.32,3.54.31.14.45.29.6.57.74,1.17,2.63.45,3.37,1.63.14.14.45.14.74.14h.29c1.03-.6,2.2-.14,3.37-.89.6-.29,1.34-.14,1.91-.43.89-.17,1.63-.74,2.2-.6.6-.43,1.2-.89,1.63-.89.29,0,.6.29.89.74,0,.14.43.14.89,0,.72-.14,3.23-.6,3.83-1.17.57-.6,1.03-1.17,1.75-1.48.45-.72.74-1.32,1.03-2.06,0-.14.14-.29.31-.43,1.6-1.32,2.2-4.71,2.2-6.77.29-.74.43-1.46,1.17-2.06.74-.57.74-1.17.43-1.6-.14-.45-.43-.6-.43-1.03-.14-.31-.14-.89,0-1.03.14-.17.29-.17.29-.17.29,0,.45.17.74.31,0,.14.29.14.43.14,0-.29-.29-.6-.43-1.03,0-.45.14-.6.57-.6.17-.14.45,0,.6.14v-.14c.14-.29.43-.72.43-1.17.45-1.03.45-2.06-.43-2.63-.14-.17.14-.31,0-.45.43-.29.74-.43,1.03-.57,1.03-.6,1.17-1.03.6-1.77-.45-.45-.89-1.03-1.34-1.63-.29-.43.14-.89.6-1.03.43-.14.89-.14,1.32-.14.74-.29,1.17-1.03.89-1.6-.43-.74-.43-1.91-1.46-2.51-.31-.14,0-.74.43-.89q1.03-.29.89-1.17c.43-.14.74-.43,1.32-.74-.14-.43-.57-.72-.29-1.03.43-1.03.29-1.75-.29-2.35-.17-.29-.45-.6-.45-1.03,0-.74.14-1.63.14-2.49,0-.45.45-1.2,1.03-1.2.14,0,.31.17.31.31.14.72.29,1.32-.31,2.2-.14.14-.14.57-.14.89-.14.29.45.43.6.29.89-.43,1.17-1.03,1.17-1.77,0-.29-.14-.57,0-.89.43-1.17,1.17-2.2,1.17-3.37.74-.89.74-1.6.45-2.35-.17-.45-.17-.89.29-1.34,1.32-1.89,1.6-3.8,1.46-5.58,0-.43,0-.74.31-1.17v.14c.57-.6,1.03-1.32,1.03-2.06.29-.6.43-1.32.57-1.91.45-.89.29-1.46-.29-1.91-.45-.43-.74-.72-1.32-1.17-.31.6-.74,1.03-1.03,1.48h-.31c.31-.89.45-1.77.74-2.8.74.43,1.32.89,2.06,1.32.29-.57.29-1.17.6-1.6.86-.89.57-1.63.14-2.23-.45-.29-.6-.57-.89-.89-.6.17-.45,1.05-1.03,1.34-.14-.14-.14-.29-.14-.29l1.17-3.97c.14,1.6.29,1.6,1.6,2.49h.45c0-.14.29-.29.29-.43,0-.17-.14-.31,0-.45,1.17-1.77,1.48-3.37.89-5-.29-.72.14-1.17.89-1.75,1.17-.89,1.32-1.63,1.03-2.8-.14-.45-.29-.89-.6-1.48.89-.86,1.91-1.6,2.51-2.78-.14-.6-.31-1.03-.6-1.48-.43-.89-.14-1.6.6-2.63.29-.6.72-1.03,1.32-1.2.6-.14,1.03-.43,1.46-.29,1.77,0,2.94-.14,4.71-.74h.29c.89.17.74.17,1.48.31h1.32c.6,0,1.17-.14,1.77-.31.29,0,.89-.14,1.32-.14.6.14.89.14.89.14,0,0-.43-.14,1.03-.14.89-.14,1.63-.43,2.49-1.17l-.14.14c.6-.43.6-1.6,1.77-1.46l.14-.14c.74-1.63,2.06-2.94,1.91-4.71-.14-.74-.29-1.46-.43-2.06-1.63-4.86-7.8-4.86-12.06-4.86-5.6,0-11.32.17-16.92.31-4.69.29-9.26.72-13.95,1.03-5.15.43-10.74,1.32-15.89,2.49-2.06.6-3.97,1.03-6.17,2.35.14,1.03-.29,1.77-.89,2.51-.57.29-1.32.74-1.91,1.03-.57,1.32-1.6,2.2-2.35,3.23-.45.74-.74,1.46-.6,2.2ZM894.96,1215.88c.43,0,.72-.14.86,0,.45.31.6.74.89,1.2,0,.14-.14.43-.29.43s-.43.14-.6,0c-.43-.29-.72-.89-.86-1.63ZM901.14,1194.27c0,.14.14.45,0,.74-.17.6-.45,1.17-.74,2.06-.29-.74-.29-1.32-.29-2.06.14-.29.86-.89,1.03-.74ZM909.06,1162.23c.17-.29.6-.74.74-.43.14.14,0,.29,0,.57-.14.45-.43.74-.57,1.17h-.31c0-.43,0-.89.14-1.32ZM906.14,1173.12c.14-.45.14-.89.14-1.2.14-.43.29-.72.29-1.17h.6c-.31.74-.45,1.48-.89,2.37h-.14ZM898.91,1202.22c.17,0,.31,0,.45-.14-.14,0-.14-.14-.14-.29,0-.31.14-.6.43-1.03.45.14.45.57.29.89,0,.14-.29.29-.57.43-.14.14-.14.29-.29.43,0-.14-.17-.14-.17-.29h0ZM896.71,1211.19c.14,0,.31-.14.31-.14.14.14.29.29.29.43.14.29,0,.6,0,.89-.14-.14-.29-.14-.6-.29-.14-.31-.29-.6,0-.89ZM892.9,1226.62c0-.14.14-.29.14-.43h.29c.14.14.43.29.43.57,0,.14-.14.29-.14.45h-.14c-.29-.17-.43-.45-.57-.6ZM899.65,1198.55l.29-.17c.17,0,.31.31.31.45-.31.14-.45.29-.6.29,0-.14-.14-.29,0-.57ZM893.62,1221.91c.14,0,.31-.14.45-.14s.14.31.29.31c-.14.14-.29.29-.43.29,0-.14-.17-.29-.31-.45ZM897.31,1209.27c.14.14.29.14.57.29-.29.14-.43.31-.57.31-.14-.17,0-.31-.14-.45l.14-.14ZM895.82,1164c.17-.14.31-.31.45-.31,0,.17.14.31.14.31-.14.14-.43.14-.6.29v-.29ZM907.6,1168.69h.14c.14,0,.14.14.14.14l-.14.17s-.14-.17-.14-.31ZM902.6,1187.52q0,.14-.14.29h-.14c0-.14.14-.14.29-.29ZM902.02,1190.15l.14.14h-.14v-.14ZM901.85,1192.21h.17v.14l-.17-.14Z"/>
      </g>
      <path id="path65" class="st3" d="M223.26,899.35c2.34.71,13.83,7.06,14.18,7.84.5,1.11-.36,3.13-1.56,3.67-.71.32-2.09-.03-4.72-1.2l-3.72-1.65,1.88,5.5c1.05,3.02,1.82,5.97,1.74,6.55-.17,1.26-1.93,2.15-8.34,4.22-2.3.74-4.24,1.47-4.29,1.62-.06.15,1.69.9,3.89,1.67,7.09,2.49,8.05,2.95,8.53,4.02.34.75-.13,2.66-1.68,6.86l-2.15,5.82,6.51-3.11c3.9-1.87,6.83-3.06,7.31-2.97.45.08,2.64,2.51,5.07,5.62l4.27,5.48.56-3.14c.31-1.73.74-3.99.97-5.03.22-1.04.53-2.51.68-3.28.43-2.18,2.01-2.54,8.99-2.01,3.46.26,6.33.38,6.37.27.04-.11-1.88-2.08-4.26-4.36-6.01-5.76-6.09-5.08,1.47-12.18,1.6-1.5,2.86-2.83,2.81-2.95-.07-.11-1.89-.09-4.07.07-4.58.33-5.38.13-6.11-1.51-.66-1.47-.16-2.94,1.23-3.56,1.48-.67,17.68-1.54,18.67-1.01,1.11.6,1.93,2.51,1.47,3.44-.2.41-3.13,3.31-6.51,6.44-4.3,3.98-6.03,5.85-5.76,6.21.21.28,3,3.02,6.21,6.08,6.4,6.11,7.01,7.19,5.06,8.98-.86.79-2.01.83-9.14.33-4.49-.31-8.88-.61-9.76-.65l-1.6-.08-1.48,8.18c-1.46,8.06-1.5,8.18-3.03,8.87-.85.38-1.86.55-2.24.36-.38-.19-2.63-2.84-5.01-5.9-7.17-9.24-6.14-8.36-8.38-7.19-1.06.56-4.83,2.42-8.38,4.15-7.34,3.57-8.31,3.7-9.33,1.35-.49-1.13-.16-2.52,2.06-8.79,1.45-4.1,2.58-7.6,2.49-7.79-.14-.32-9.1-3.61-14.28-5.25-2.19-.69-2.58-1-3.29-2.57-.44-.98-.65-2.02-.46-2.3.48-.71,3.08-1.74,11.13-4.4,3.79-1.25,6.96-2.45,7.04-2.66.08-.21-.85-3.26-2.07-6.79-1.22-3.52-2.39-7.06-2.6-7.86-.59-2.28,1.33-4.09,3.62-3.39h.01ZM252.27,956.4l-12.55-13.5-17.35,9.55,6.15-18.83-18.29-7.61,18.56-6.93-5.45-19.04,16.99,10.19,11.49-16.14,2.63,19.63,19.78-1.08-13.71,14.3,13.17,14.79-19.73-1.81-1.7,16.47Z"/>
      <path id="path66" class="st3" d="M168.25,680.31c1.45,3.13,5.55,23.67,5.06,24.76-.7,1.57-3.62.04-5.33-.72-1.01-.45-1.93-2.22-3.17-6.09l-1.75-5.45-4,7.13c-2.2,3.92-4.56,7.51-5.25,7.98-1.49,1-4.07,0-12.25-4.81-2.94-1.72-5.52-3.07-5.72-2.99-.21.08.64,2.62,1.89,5.65,4.03,9.78,4.45,11.22,3.78,12.73-.47,1.06-2.91,2.35-8.78,4.67l-8.13,3.2,9.37,3.92c5.62,2.35,9.61,4.3,9.97,4.89.34.55-.15,5.13-1.15,10.59l-1.75,9.62,3.83-2.36c2.11-1.3,4.89-2.96,6.19-3.7,1.3-.74,3.14-1.8,4.08-2.36,2.7-1.6,4.55-.27,10.55,7.56,2.97,3.88,5.54,7.01,5.69,6.94.16-.06.42-3.92.58-8.57.41-11.71-.38-11.16,14.17-9.88,3.08.27,5.66.35,5.73.19.07-.17-1.68-2.06-3.89-4.21-4.63-4.5-5.18-5.53-4.15-7.84.92-2.07,2.94-2.92,4.89-2.05,2.09.93,18.2,17.13,18.57,18.68.41,1.72-.83,4.37-2.23,4.77-.62.18-6.42-.18-12.87-.79-8.21-.78-11.79-.85-11.92-.23-.1.49-.36,5.99-.57,12.23-.42,12.45-.98,14.1-4.69,13.74-1.63-.16-2.75-1.33-8.91-9.29-3.88-5.01-7.69-9.89-8.47-10.86l-1.42-1.75-9.98,6.11c-9.84,6.03-10.01,6.1-12.17,5.13-1.2-.54-2.32-1.44-2.48-2.01-.16-.57.52-5.43,1.51-10.79,2.99-16.2,3.02-14.3-.31-15.54-1.58-.59-7.08-2.8-12.21-4.91-10.63-4.37-11.68-5.26-10.17-8.53.73-1.57,2.49-2.53,11.17-6.08,5.67-2.32,10.4-4.42,10.52-4.68.2-.45-4.74-12.95-7.88-19.93-1.33-2.95-1.37-3.65-.38-5.87.62-1.38,1.51-2.57,1.99-2.64,1.2-.16,4.71,1.6,15.06,7.57,4.87,2.81,9.1,5.01,9.39,4.9.29-.11,2.63-3.96,5.18-8.54,2.56-4.59,5.18-9.13,5.82-10.1,1.84-2.76,5.54-2.43,6.95.62h0ZM174.35,772.72l-17.38-21.7-23,15.62,6.13-27.12-26.22-10.9,24.69-9.46-10.11-25.9,25.07,12.01,13.95-24.05,6.24,27.09,27.5-4.09-17.29,21.77,20.34,18.95-27.8.06-2.13,27.72Z"/>
      <path id="path2568" class="st2" d="M495.68,120.74h0c-9.34,30.07,3.09,82.37,34.6,102.59,33.67,21.6,44.93,63.24,40.9,101.88-2.69,25.82,28.94,55.55,46.01,21.65,5.17-10.95-4.11-51.37,25.63-85.99,6.63-7.27,17.09-16.36,15.68-12.03-4.43,13.63,3.56,36.92,21.01,60.4,20.37,29.1,18.26,64.74,29.95,96.35,8.33,24.6,47.87.98,43.86-28.69,21.18,6.33,25.53,57.42,28.19,79.46,3.45,28.64-15.86,87.16-18.81,100.15-8.84,38.98,39.02,51.49,44.73-13.15,34.8,8.99,26.56,72.65,9.84,121.3-26.65,77.52-22.26,90.17-28.56,122.64-13.28,136.78-123.87,231.79-267.11,232.13-143.23-.34-261.67-87.75-270.47-223.08,0,0-2.04-20.74-1.99-29.2.2-38.66-21.13-77.46-31.17-115.09-7.49-28.07-26.26-114.31,8.43-125.28,1.02,21.51,4.33,35.32,15.68,51.59,23.65,33.88,29.1-13.12,24.39-27.81-11.45-35.65-21.83-75.87-15.43-117.22,2.71-25.79,6.1-37.29-5.59-55.99,31.23-1.8,43.16,40.8,47.95,47.37,19.74,27.08,39.73-22.88,46.43-44.95,5.13-16.9,31.12-87.88,1.76-128.53,13.44,2.09,41.86,12.01,50.96,57.76,12.11,65.16,55.93,4.74,57.84-17.58,1.75-20.48-13.26-72.39-4.4-106.84,6.32-24.55,27.21-53.4,49.69-63.84h0Z"/>
      <path id="path68" class="st1" d="M537.55,415.86h52.49v217.39h-52.49v-217.39ZM480.08,887.14h78.25l-.26,130.28c-13.26,1.49-26.64,2.16-40.15,2.01-13.1-.26-26.1-1.24-39.02-2.93l1.17-129.37ZM523.96,940.86l-178.14-84.95,340.08,6.93-161.94,78.02ZM346.37,686.19h345.67l-1.49,177.93-344.18-6.93v-171ZM355.55,450.36h52.49v217.39h-52.49v-217.39ZM446.55,415.86h52.49v217.39h-52.49v-217.39ZM628.55,450.36h52.49v217.39h-52.49v-217.39Z"/>
      <path id="path69" class="st4" d="M498.88,853.46c-8.49-1.18-24.45-22.56-21.28-28.49,2.44-4.57,6.8-2.49,12.66,6.06,6.76,9.85,11.5,13.25,17.19,12.33,5.36-.87,13.23-7.08,20.83-16.44,3.88-4.77,8.06-5.53,10.04-1.83,1.39,2.6.66,6.12-1.89,9.12-.9,1.06-3.55,4.17-5.88,6.92-8.78,10.32-18.61,14.15-31.67,12.33h0ZM600.47,827.43c-10.75-2.82-18.22-14.53-18.36-28.81-.09-9.59,5.02-21.22,11.2-25.45,5.22-3.58,17.91-4.08,20.31-.8.81,1.11,1.93,2.04,2.5,2.06,1.68.09,6.2,7.96,6.2,10.82,0,1.46.78,3.3,1.72,4.09,1.22,1.02,1.73,3.7,1.73,9.2s-.5,8.19-1.73,9.2c-.95.79-1.72,2.63-1.72,4.09,0,3.94-4.54,10.18-9.9,13.6-4.76,3.04-6.71,3.37-11.96,1.99h0ZM412.13,814.94c-7.75-6.92-9.55-11.58-9.55-24.68s2.02-18.37,8.38-24.21c2.87-2.64,4.48-3.16,9.65-3.16,4.46,0,6.4.49,6.87,1.73.36.95,1.33,1.73,2.15,1.73,2.11,0,5.82,7.63,8.07,16.61,1.81,7.2,1.8,8.17-.06,15.95-1.1,4.56-2.7,9.1-3.56,10.1-.87,1-1.57,2.42-1.57,3.15,0,2.06-8.78,7.11-12.35,7.11-2.05,0-4.9-1.54-8.01-4.31h0ZM326.22,619.88c-.8.76-1.34,1.91-1.43,3.92-.84,4.56,1.07,17.03-4.13,17.47-19.18.61-39.17,6.88-54.01,19.5-60.33,40.97-113.47,48.01-116.01,50.25-6.15,5.4-3.68,17.6,1.32,23.76,3.47,4.27,3.89,4.25,15.93,4.26,43.76-4.76,117.56-68.53,146.99-61.96,3.35.75,3.4.8.89.88-37.8,3.54-54.84,58.72-56.37,68.43-2.66,16.95,5.41,57.08,4.56,71.94-1.18,20.82-21.25,36.24-22.94,43-6.17,13.58-5.82,47.19-5.79,56.07.06,15.91,22.89,15.11,23.3,7.04.27-5.24.74-36.75,1.6-43.1,2.46-18.13,26.81-35.77,28.82-52.62,2.95-24.72-4.06-65.88-2.3-76.02,1.84-10.6,7.04-26.71,21.66-35.95,2.56-1.61,4.22-1.99,8.82-1.99,5.54,0,5.7.06,6.95,2.57.71,1.42,1.29,3.53,1.29,4.69.03,4.99,1.01,8.24,2.5,8.24,2.43.27,6.39,2.29,7.58,4.24.28,1.03,1.28,29.23,1,62.66-.22,26.67,1.82,49.64,3.6,59.11,1.03,5.5,9.27,16.82,16.91,20.29,47.57,21.6,121.83,49.26,121.83,49.26,0,0-1.04,74.79.12,90.76,3.46.49,12.5,1.57,12.5,1.33-.03-49.51,2.9-96.51.21-100.59-4.27-6.47-98.93-35.51-131.27-55.59-4.98-3.09-9.97-11.83-10.37-18.38-2.57-41.57-.69-42.3-.66-110.37,0-.81,327.15-.84,336.1-.98-1.98,76.25-3.23,100.64-3.75,114.95-.05,1.34-2.23,14.39-8.57,17.35-29.73,13.91-123.76,48.19-126.57,54.9-2.44,5.83.84,40.7-1.43,99.54,8.05-.52,14.89-1.45,14.89-1.45,0,0-1.66-74.1.64-89.97,14.97-15.08,85.68-33.83,119.45-49.58,11.51-5.37,16.32-20.53,16.42-27.11.63-41.2,3.3-78.39,2.91-117.58,10.32-1.69,12.29-6.32,13.96-10.98.79-2.2,1.47-87.19-1.95-102.19h-385.18ZM531.39,423.43c.6,77.73,2.68,158.71.34,235.79h14.1c-.04-.96-2.16-140.79-1.27-232.45.01-1.5,8.84-9.57,18.19-9.72,8.68-.13,14.88,5.64,18.67,9.99,0,76.89.12,155.28-.27,232.17h16.14c-1.97-.18-3.43-.37-3.43-.58.7-61.65.33-169.35.17-233.92-.34-14.05-18.27-22.46-30.88-22.59-14.02-.15-29.36,6.61-31.76,21.31h0ZM349.39,457.93c.6,77.73,2.68,158.71.34,235.79h14.1c-.04-.96-2.16-140.79-1.27-232.45.01-1.5,8.84-9.57,18.19-9.72,8.68-.13,14.88,5.64,18.67,9.99,0,76.89.12,155.28-.27,232.17h16.14c-1.97-.18-3.43-.37-3.43-.58.7-61.65.33-169.35.17-233.92-.34-14.05-18.27-22.46-30.88-22.59-14.02-.15-29.36,6.61-31.76,21.31h0ZM440.4,423.43c.6,77.73,2.68,158.71.34,235.79h14.1c-.04-.96-2.16-140.79-1.27-232.45.01-1.5,8.84-9.57,18.19-9.72,8.68-.13,14.88,5.64,18.67,9.99,0,76.89.12,155.28-.27,232.17h16.14c-1.97-.18-3.43-.37-3.43-.58.7-61.65.33-169.35.17-233.92-.34-14.05-18.27-22.46-30.88-22.59-14.02-.15-29.36,6.61-31.76,21.31h0ZM622.39,457.93c.6,77.73,2.68,158.71.34,235.79h14.1c-.04-.96-2.16-140.79-1.27-232.45.01-1.5,8.84-9.57,18.19-9.72,8.68-.13,14.88,5.64,18.67,9.99,0,76.89.12,155.28-.27,232.17h16.14c-1.97-.18-3.43-.37-3.43-.58.7-61.65.33-169.35.17-233.92-.34-14.05-18.27-22.46-30.88-22.59-14.02-.15-29.36,6.61-31.76,21.31h0Z"/>
      <g id="g71">
        <path id="path70" class="st0" d="M370.9,820.62c-12.82-7.82-2.5-23.72,11.85-18.27,5.42,2.06,11.78,9.21,11.78,13.24,0,7.61-14.38,10.66-23.63,5.03Z"/>
        <path id="path71" class="st0" d="M635.51,834.93c-5.96-2.6-10.09-8.62-8.77-12.78,2.17-6.83,18.9-10.19,25.98-5.23,4.98,3.49,4.41,10.02-1.28,14.81-2.54,2.14-5.19,3.89-5.89,3.89s-2.17.31-3.27.7c-1.1.38-4.15-.24-6.77-1.38h0Z"/>
      </g>
      <path id="path72" class="st1" d="M507.53,679.13v-33.43h7.05v66.86h-7.05v-33.43ZM457.54,709.15c-4.1-1.39-5.06-4.02-5.46-14.99-.39-10.63-.65-11.17-5.69-11.84l-3.36-.45.19-2.95q.19-2.94,3.33-3.45c4.82-.77,5.14-1.44,5.52-11.58.5-13.24,1.79-15,11.36-15.49l5.29-.27v6.44l-3.24.35c-1.78.19-3.57.71-3.96,1.16-.42.47-.84,4.38-1,9.27-.29,8.85-1.09,11.97-3.24,12.74-1.08.39-.99.68.95,2.85,2.11,2.37,2.16,2.56,2.16,8.51,0,9.49.52,12.46,2.35,13.4.86.44,2.55.79,3.77.79,2.2,0,2.21.03,2.21,3.24v3.24l-4.33-.05c-2.38-.03-5.47-.44-6.86-.91h0ZM602.01,706.99v-3.14l3.31-.36c2.03-.22,3.61-.81,4.08-1.53.44-.68.9-4.8,1.08-9.77.34-9.21,1.09-11.68,3.84-12.66l1.45-.52-1.39-.58c-2.74-1.14-3.54-3.74-3.89-12.64-.39-9.89-.96-11.02-5.59-11.02h-2.88v-6.65l5.61.34c9.79.59,10.56,1.6,11.04,14.38.4,10.7,1,11.96,6.04,12.59l2.96.37v6.1l-3.23.48c-4.82.72-5.74,2.78-5.74,12.9,0,9.92-.8,12.13-4.98,13.72-1.62.62-4.91,1.13-7.32,1.13h-4.37v-3.14ZM390.5,705.19c-4.84-9.03-6.79-16.61-6.78-26.42,0-6.51.27-8.4,1.92-13.73,1.05-3.4,2.99-8.33,4.3-10.96l2.38-4.78h3.49c1.92,0,3.49.21,3.49.47s-.84,2.47-1.87,4.92c-3.91,9.27-4.86,14.2-4.8,24.81.05,9.02.2,10.19,2.14,16.49,1.15,3.73,2.47,7.45,2.93,8.27s1.03,2.22,1.26,3.11c.41,1.54.26,1.62-3,1.62h-3.43l-2.02-3.77ZM413.66,707.72c.2-.69,1.39-4.08,2.67-7.53,5.43-14.72,5.43-27.38,0-42.1-3.51-9.53-3.55-8.79.42-8.78,3.2,0,3.53.17,4.66,2.34,5.92,11.28,7.73,18.72,7.27,29.82-.36,8.72-2.07,15.11-6.17,23.01l-2.32,4.48-3.44.03c-2.99,0-3.39-.15-3.08-1.24h0ZM641.92,699.88c0-.71.43-3.08.95-5.25.52-2.18.95-6.46.95-9.53v-5.57h10.25l-.03,4.85c-.03,4.28-.35,5.53-2.75,10.6l-2.71,5.75-3.34.22c-2.87.19-3.34.03-3.33-1.08h0ZM643.84,663.35v-6.11h10.25v12.22h-10.25v-6.11ZM562.66,703.94c-3.23-1.09-6.26-3.7-7.86-6.77-3.52-6.74-2.48-14.56,2.71-20.39l2.86-3.21-1.18-2.95c-2.33-5.81-1.15-11.5,3.14-15.09,1.95-1.64,9.48-2.41,13.62-1.4l2.56.62.19,4.91c.17,4.5.09,4.87-.96,4.36-.63-.31-2.96-.71-5.16-.89-4.28-.36-5.92.4-5.92,2.75,0,.95,9.85,18.63,11.95,21.46.55.73,1.07-.91,1.36-4.24l.31-3.61h7.07l-.38,4.07c-.21,2.24-1.12,5.67-2.02,7.63l-1.64,3.56,2.21,4.05,2.21,4.05-4.89.21c-3.81.17-5.01-.03-5.42-.86-.46-.92-1.01-.82-3.89.68-3.44,1.8-7.5,2.19-10.87,1.05h0ZM571.45,694.6l1.67-.71-2.44-3.78c-1.34-2.08-3.16-5-4.03-6.49-1.93-3.29-3.14-3.19-4.7.41-1.07,2.46-1.1,3.01-.3,5.38.99,2.91,4.37,5.9,6.67,5.9.81,0,2.22-.32,3.13-.71h0ZM359.19,690.28v-6.11h10.25v12.22h-10.25v-6.11ZM359.19,667.99v-6.11h10.25v12.22h-10.25v-6.11ZM483,690.28v-6.11h10.25v12.22h-10.25v-6.11ZM483,667.99v-6.11h10.25v12.22h-10.25v-6.11ZM528.85,690.28v-6.11h9.61v12.22h-9.61v-6.11ZM528.85,667.99v-6.11h9.61v12.22h-9.61v-6.11ZM668.55,690.46l.19-5.93,4.97-.21,4.97-.21v12.28h-10.31l.19-5.93ZM668.84,673.62c-.23-.26-.43-3.01-.43-6.11v-5.63h10.25v12.22h-4.7c-2.58,0-4.89-.21-5.13-.48h0Z"/>
    </g>
  </g>
</svg>