<?xml version="1.0" encoding="UTF-8"?>
<svg id="svg5" xmlns="http://www.w3.org/2000/svg" version="1.1" xmlns:svg="http://www.w3.org/2000/svg" xmlns:xlink="http://www.w3.org/1999/xlink" viewBox="0 0 1037.85 1385.33">
  <!-- Generator: Adobe Illustrator 29.5.1, SVG Export Plug-In . SVG Version: 2.1.0 Build 141)  -->
  <defs>
    <style>
      .st0 {
        fill: #f46eb5;
      }

      .st1 {
        fill: #e7dcd7;
      }

      .st2 {
        fill: url(#Dégradé_sans_nom);
      }

      .st3 {
        fill: #d41116;
      }

      .st4 {
        fill: #131c22;
      }
    </style>
    <linearGradient id="Dégradé_sans_nom" data-name="Dégradé sans nom" x1="209.09" y1="299.21" x2="204.77" y2="77.7" gradientTransform="translate(-64.96 977.9) scale(2.83 -2.83)" gradientUnits="userSpaceOnUse">
      <stop offset="0" stop-color="#ffe92e"/>
      <stop offset="1" stop-color="#d41116"/>
    </linearGradient>
  </defs>
  <g id="g1">
    <g id="g72">
      <path id="path2" d="M530.13,864.65c1.53-.69,4.46-2.84,4.98-3.64.26-.41.87-1.05,1.35-1.44.87-.7,2.5-2.66,2.43-2.92-.03-.07.31-.78.73-1.55,1.05-1.92,1.57-3.04,1.7-3.66.06-.29.22-.85.36-1.24.36-1.05.21-3.08-.42-5.47-.6-2.3-1.21-3.58-1.98-4.11-.56-.39-1.51-1.86-1.72-2.65-.21-.78-2.87-3.62-4.05-4.32-.93-.55-1.08-.58-1.84-.38-.8.21-2.19,1.24-2.34,1.72-.04.11-.59.8-1.23,1.53-1.45,1.64-1.54,1.94-.92,3.13.31.59.67,1.75,1.06,3.45.61,2.63.63,3.25.11,4.34-.11.23-.4,1.13-.65,2.01-.74,2.61-1.5,3.79-2.63,4.09-.36.1-1.24.43-1.94.73-1.36.6-1.4.6-3.7.35-.57-.06-1.23-.2-1.46-.3-.23-.11-.89-.3-1.47-.44-.7-.16-1.76-.69-3.15-1.57-1.61-1.02-2.26-1.32-2.79-1.32-.46,0-.86-.16-1.19-.46-.28-.25-.92-.76-1.43-1.13-1.06-.77-2.02-1.78-2.81-2.96-.59-.87-1.64-1.85-2.42-2.25-.26-.13-.8-.61-1.21-1.06-.4-.45-.89-.89-1.08-.98-.19-.09-.56-.4-.82-.69-.26-.29-.79-.76-1.18-1.05-.39-.29-.99-.92-1.33-1.41-.78-1.11-1.81-1.7-4.24-2.4-2.13-.62-3.02-.59-4.05.13-.44.3-1.67.81-3.31,1.35-3.34,1.1-4.28,1.54-6.14,2.84-.94.66-1.91,1.19-2.53,1.39-.56.18-1.48.51-2.06.74-.81.32-1.24.38-1.93.32-1.87-.19-4.31-1.41-5.47-2.75-.35-.41-.92-1-1.26-1.31-.91-.84-1.04-1.88-.53-4.2l.4-1.82,2.11-1.85c2.37-2.08,2.77-2.6,2.77-3.66,0-2.07-1.46-3.77-3.88-4.48-1.95-.57-2.43-.59-3.78-.13-1.74.59-2.3,1.08-3.26,2.84-.71,1.3-.98,1.62-2.03,2.38-1.73,1.26-1.96,1.61-2.37,3.59-.2.96-.54,2.14-.76,2.63-.57,1.26-.62,1.94-.32,4.71.41,3.74,1.04,5.16,2.99,6.7.68.54,1.47,1.72,1.69,2.54.16.58.33.74,1.63,1.46.8.44,1.81.89,2.24.99,1.58.38,2.61.91,3.66,1.9,1.79,1.68,2.69,2.11,4.32,2.04.48-.01,1.08.11,1.45.34.78.45,1.76.49,4.91.17l2.45-.24.54-.56c.43-.44.93-.69,2.35-1.17,1.9-.65,2.37-.98,2.67-1.89.2-.61.27-.65,2.6-1.81l1.93-.96.79.38c.44.21.93.58,1.11.83.18.25.7.71,1.15,1.04.68.49.94.83,1.4,1.83.36.77.79,1.42,1.16,1.73.57.48,1.55.88,1.94.78.25-.06,1.91.6,2.25.9.14.13.51.85.81,1.59.45,1.11.7,1.49,1.39,2.1.46.41,1.15.83,1.53.93.38.11.87.42,1.08.69.53.68,2.53,1.86,3.9,2.29.62.2,1.2.43,1.28.51.08.09.76.27,1.49.43.73.15,1.43.38,1.54.5.47.49,2.95,1.14,4.52,1.2.89.04,2.29.15,3.1.27l1.49.21,1.92-.72c1.45-.54,2.2-.74,3.06-.81,1.28-.1,2.07-.31,3.29-.87h0Z"/>
      <path id="path65" class="st3" d="M223.26,899.35c2.34.71,13.83,7.06,14.18,7.84.5,1.11-.36,3.13-1.56,3.67-.71.32-2.09-.03-4.72-1.2l-3.72-1.65,1.88,5.5c1.05,3.02,1.82,5.97,1.74,6.55-.17,1.26-1.93,2.15-8.34,4.22-2.3.74-4.24,1.47-4.29,1.62-.06.15,1.69.9,3.89,1.67,7.09,2.49,8.05,2.95,8.53,4.02.34.75-.13,2.66-1.68,6.86l-2.15,5.82,6.51-3.11c3.9-1.87,6.83-3.06,7.31-2.97.45.08,2.64,2.51,5.07,5.62l4.27,5.48.56-3.14c.31-1.73.74-3.99.97-5.03.22-1.04.53-2.51.68-3.28.43-2.18,2.01-2.54,8.99-2.01,3.46.26,6.33.38,6.37.27.04-.11-1.88-2.08-4.26-4.36-6.01-5.76-6.09-5.08,1.47-12.18,1.6-1.5,2.86-2.83,2.81-2.95-.07-.11-1.89-.09-4.07.07-4.58.33-5.38.13-6.11-1.51-.66-1.47-.16-2.94,1.23-3.56,1.48-.67,17.68-1.54,18.67-1.01,1.11.6,1.93,2.51,1.47,3.44-.2.41-3.13,3.31-6.51,6.44-4.3,3.98-6.03,5.85-5.76,6.21.21.28,3,3.02,6.21,6.08,6.4,6.11,7.01,7.19,5.06,8.98-.86.79-2.01.83-9.14.33-4.49-.31-8.88-.61-9.76-.65l-1.6-.08-1.48,8.18c-1.46,8.06-1.5,8.18-3.03,8.87-.85.38-1.86.55-2.24.36-.38-.19-2.63-2.84-5.01-5.9-7.17-9.24-6.14-8.36-8.38-7.19-1.06.56-4.83,2.42-8.38,4.15-7.34,3.57-8.31,3.7-9.33,1.35-.49-1.13-.16-2.52,2.06-8.79,1.45-4.1,2.58-7.6,2.49-7.79-.14-.32-9.1-3.61-14.28-5.25-2.19-.69-2.58-1-3.29-2.57-.44-.98-.65-2.02-.46-2.3.48-.71,3.08-1.74,11.13-4.4,3.79-1.25,6.96-2.45,7.04-2.66.08-.21-.85-3.26-2.07-6.79-1.22-3.52-2.39-7.06-2.6-7.86-.59-2.28,1.33-4.09,3.62-3.39h.01ZM252.27,956.4l-12.55-13.5-17.35,9.55,6.15-18.83-18.29-7.61,18.56-6.93-5.45-19.04,16.99,10.19,11.49-16.14,2.63,19.63,19.78-1.08-13.71,14.3,13.17,14.79-19.73-1.81-1.7,16.47Z"/>
      <path id="path66" class="st3" d="M168.25,680.31c1.45,3.13,5.55,23.67,5.06,24.76-.7,1.57-3.62.04-5.33-.72-1.01-.45-1.93-2.22-3.17-6.09l-1.75-5.45-4,7.13c-2.2,3.92-4.56,7.51-5.25,7.98-1.49,1-4.07,0-12.25-4.81-2.94-1.72-5.52-3.07-5.72-2.99-.21.08.64,2.62,1.89,5.65,4.03,9.78,4.45,11.22,3.78,12.73-.47,1.06-2.91,2.35-8.78,4.67l-8.13,3.2,9.37,3.92c5.62,2.35,9.61,4.3,9.97,4.89.34.55-.15,5.13-1.15,10.59l-1.75,9.62,3.83-2.36c2.11-1.3,4.89-2.96,6.19-3.7,1.3-.74,3.14-1.8,4.08-2.36,2.7-1.6,4.55-.27,10.55,7.56,2.97,3.88,5.54,7.01,5.69,6.94.16-.06.42-3.92.58-8.57.41-11.71-.38-11.16,14.17-9.88,3.08.27,5.66.35,5.73.19.07-.17-1.68-2.06-3.89-4.21-4.63-4.5-5.18-5.53-4.15-7.84.92-2.07,2.94-2.92,4.89-2.05,2.09.93,18.2,17.13,18.57,18.68.41,1.72-.83,4.37-2.23,4.77-.62.18-6.42-.18-12.87-.79-8.21-.78-11.79-.85-11.92-.23-.1.49-.36,5.99-.57,12.23-.42,12.45-.98,14.1-4.69,13.74-1.63-.16-2.75-1.33-8.91-9.29-3.88-5.01-7.69-9.89-8.47-10.86l-1.42-1.75-9.98,6.11c-9.84,6.03-10.01,6.1-12.17,5.13-1.2-.54-2.32-1.44-2.48-2.01-.16-.57.52-5.43,1.51-10.79,2.99-16.2,3.02-14.3-.31-15.54-1.58-.59-7.08-2.8-12.21-4.91-10.63-4.37-11.68-5.26-10.17-8.53.73-1.57,2.49-2.53,11.17-6.08,5.67-2.32,10.4-4.42,10.52-4.68.2-.45-4.74-12.95-7.88-19.93-1.33-2.95-1.37-3.65-.38-5.87.62-1.38,1.51-2.57,1.99-2.64,1.2-.16,4.71,1.6,15.06,7.57,4.87,2.81,9.1,5.01,9.39,4.9.29-.11,2.63-3.96,5.18-8.54,2.56-4.59,5.18-9.13,5.82-10.1,1.84-2.76,5.54-2.43,6.95.62h0ZM174.35,772.72l-17.38-21.7-23,15.62,6.13-27.12-26.22-10.9,24.69-9.46-10.11-25.9,25.07,12.01,13.95-24.05,6.24,27.09,27.5-4.09-17.29,21.77,20.34,18.95-27.8.06-2.13,27.72Z"/>
      <path id="path2568" class="st2" d="M495.68,120.74h0c-9.34,30.07,3.09,82.37,34.6,102.59,33.67,21.6,44.93,63.24,40.9,101.88-2.69,25.82,28.94,55.55,46.01,21.65,5.17-10.95-4.11-51.37,25.63-85.99,6.63-7.27,17.09-16.36,15.68-12.03-4.43,13.63,3.56,36.92,21.01,60.4,20.37,29.1,18.26,64.74,29.95,96.35,8.33,24.6,47.87.98,43.86-28.69,21.18,6.33,25.53,57.42,28.19,79.46,3.45,28.64-15.86,87.16-18.81,100.15-8.84,38.98,39.02,51.49,44.73-13.15,34.8,8.99,26.56,72.65,9.84,121.3-26.65,77.52-22.26,90.17-28.56,122.64-13.28,136.78-123.87,231.79-267.11,232.13-143.23-.34-261.67-87.75-270.47-223.08,0,0-2.04-20.74-1.99-29.2.2-38.66-21.13-77.46-31.17-115.09-7.49-28.07-26.26-114.31,8.43-125.28,1.02,21.51,4.33,35.32,15.68,51.59,23.65,33.88,29.1-13.12,24.39-27.81-11.45-35.65-21.83-75.87-15.43-117.22,2.71-25.79,6.1-37.29-5.59-55.99,31.23-1.8,43.16,40.8,47.95,47.37,19.74,27.08,39.73-22.88,46.43-44.95,5.13-16.9,31.12-87.88,1.76-128.53,13.44,2.09,41.86,12.01,50.96,57.76,12.11,65.16,55.93,4.74,57.84-17.58,1.75-20.48-13.26-72.39-4.4-106.84,6.32-24.55,27.21-53.4,49.69-63.84h0Z"/>
      <path id="path68" class="st1" d="M537.55,415.86h52.49v217.39h-52.49v-217.39ZM480.08,887.14h78.25l-.26,130.28c-13.26,1.49-26.64,2.16-40.15,2.01-13.1-.26-26.1-1.24-39.02-2.93l1.17-129.37ZM523.96,940.86l-178.14-84.95,340.08,6.93-161.94,78.02ZM346.37,686.19h345.67l-1.49,177.93-344.18-6.93v-171ZM355.55,450.36h52.49v217.39h-52.49v-217.39ZM446.55,415.86h52.49v217.39h-52.49v-217.39ZM628.55,450.36h52.49v217.39h-52.49v-217.39Z"/>
      <path id="path69" class="st4" d="M498.88,853.46c-8.49-1.18-24.45-22.56-21.28-28.49,2.44-4.57,6.8-2.49,12.66,6.06,6.76,9.85,11.5,13.25,17.19,12.33,5.36-.87,13.23-7.08,20.83-16.44,3.88-4.77,8.06-5.53,10.04-1.83,1.39,2.6.66,6.12-1.89,9.12-.9,1.06-3.55,4.17-5.88,6.92-8.78,10.32-18.61,14.15-31.67,12.33h0ZM600.47,827.43c-10.75-2.82-18.22-14.53-18.36-28.81-.09-9.59,5.02-21.22,11.2-25.45,5.22-3.58,17.91-4.08,20.31-.8.81,1.11,1.93,2.04,2.5,2.06,1.68.09,6.2,7.96,6.2,10.82,0,1.46.78,3.3,1.72,4.09,1.22,1.02,1.73,3.7,1.73,9.2s-.5,8.19-1.73,9.2c-.95.79-1.72,2.63-1.72,4.09,0,3.94-4.54,10.18-9.9,13.6-4.76,3.04-6.71,3.37-11.96,1.99h0ZM412.13,814.94c-7.75-6.92-9.55-11.58-9.55-24.68s2.02-18.37,8.38-24.21c2.87-2.64,4.48-3.16,9.65-3.16,4.46,0,6.4.49,6.87,1.73.36.95,1.33,1.73,2.15,1.73,2.11,0,5.82,7.63,8.07,16.61,1.81,7.2,1.8,8.17-.06,15.95-1.1,4.56-2.7,9.1-3.56,10.1-.87,1-1.57,2.42-1.57,3.15,0,2.06-8.78,7.11-12.35,7.11-2.05,0-4.9-1.54-8.01-4.31h0ZM326.22,619.88c-.8.76-1.34,1.91-1.43,3.92-.84,4.56,1.07,17.03-4.13,17.47-19.18.61-39.17,6.88-54.01,19.5-60.33,40.97-113.47,48.01-116.01,50.25-6.15,5.4-3.68,17.6,1.32,23.76,3.47,4.27,3.89,4.25,15.93,4.26,43.76-4.76,117.56-68.53,146.99-61.96,3.35.75,3.4.8.89.88-37.8,3.54-54.84,58.72-56.37,68.43-2.66,16.95,5.41,57.08,4.56,71.94-1.18,20.82-21.25,36.24-22.94,43-6.17,13.58-5.82,47.19-5.79,56.07.06,15.91,22.89,15.11,23.3,7.04.27-5.24.74-36.75,1.6-43.1,2.46-18.13,26.81-35.77,28.82-52.62,2.95-24.72-4.06-65.88-2.3-76.02,1.84-10.6,7.04-26.71,21.66-35.95,2.56-1.61,4.22-1.99,8.82-1.99,5.54,0,5.7.06,6.95,2.57.71,1.42,1.29,3.53,1.29,4.69.03,4.99,1.01,8.24,2.5,8.24,2.43.27,6.39,2.29,7.58,4.24.28,1.03,1.28,29.23,1,62.66-.22,26.67,1.82,49.64,3.6,59.11,1.03,5.5,9.27,16.82,16.91,20.29,47.57,21.6,121.83,49.26,121.83,49.26,0,0-1.04,74.79.12,90.76,3.46.49,12.5,1.57,12.5,1.33-.03-49.51,2.9-96.51.21-100.59-4.27-6.47-98.93-35.51-131.27-55.59-4.98-3.09-9.97-11.83-10.37-18.38-2.57-41.57-.69-42.3-.66-110.37,0-.81,327.15-.84,336.1-.98-1.98,76.25-3.23,100.64-3.75,114.95-.05,1.34-2.23,14.39-8.57,17.35-29.73,13.91-123.76,48.19-126.57,54.9-2.44,5.83.84,40.7-1.43,99.54,8.05-.52,14.89-1.45,14.89-1.45,0,0-1.66-74.1.64-89.97,14.97-15.08,85.68-33.83,119.45-49.58,11.51-5.37,16.32-20.53,16.42-27.11.63-41.2,3.3-78.39,2.91-117.58,10.32-1.69,12.29-6.32,13.96-10.98.79-2.2,1.47-87.19-1.95-102.19h-385.18ZM531.39,423.43c.6,77.73,2.68,158.71.34,235.79h14.1c-.04-.96-2.16-140.79-1.27-232.45.01-1.5,8.84-9.57,18.19-9.72,8.68-.13,14.88,5.64,18.67,9.99,0,76.89.12,155.28-.27,232.17h16.14c-1.97-.18-3.43-.37-3.43-.58.7-61.65.33-169.35.17-233.92-.34-14.05-18.27-22.46-30.88-22.59-14.02-.15-29.36,6.61-31.76,21.31h0ZM349.39,457.93c.6,77.73,2.68,158.71.34,235.79h14.1c-.04-.96-2.16-140.79-1.27-232.45.01-1.5,8.84-9.57,18.19-9.72,8.68-.13,14.88,5.64,18.67,9.99,0,76.89.12,155.28-.27,232.17h16.14c-1.97-.18-3.43-.37-3.43-.58.7-61.65.33-169.35.17-233.92-.34-14.05-18.27-22.46-30.88-22.59-14.02-.15-29.36,6.61-31.76,21.31h0ZM440.4,423.43c.6,77.73,2.68,158.71.34,235.79h14.1c-.04-.96-2.16-140.79-1.27-232.45.01-1.5,8.84-9.57,18.19-9.72,8.68-.13,14.88,5.64,18.67,9.99,0,76.89.12,155.28-.27,232.17h16.14c-1.97-.18-3.43-.37-3.43-.58.7-61.65.33-169.35.17-233.92-.34-14.05-18.27-22.46-30.88-22.59-14.02-.15-29.36,6.61-31.76,21.31h0ZM622.39,457.93c.6,77.73,2.68,158.71.34,235.79h14.1c-.04-.96-2.16-140.79-1.27-232.45.01-1.5,8.84-9.57,18.19-9.72,8.68-.13,14.88,5.64,18.67,9.99,0,76.89.12,155.28-.27,232.17h16.14c-1.97-.18-3.43-.37-3.43-.58.7-61.65.33-169.35.17-233.92-.34-14.05-18.27-22.46-30.88-22.59-14.02-.15-29.36,6.61-31.76,21.31h0Z"/>
      <g id="g71">
        <path id="path70" class="st0" d="M370.9,820.62c-12.82-7.82-2.5-23.72,11.85-18.27,5.42,2.06,11.78,9.21,11.78,13.24,0,7.61-14.38,10.66-23.63,5.03Z"/>
        <path id="path71" class="st0" d="M635.51,834.93c-5.96-2.6-10.09-8.62-8.77-12.78,2.17-6.83,18.9-10.19,25.98-5.23,4.98,3.49,4.41,10.02-1.28,14.81-2.54,2.14-5.19,3.89-5.89,3.89s-2.17.31-3.27.7c-1.1.38-4.15-.24-6.77-1.38h0Z"/>
      </g>
      <path id="path72" class="st1" d="M507.53,679.13v-33.43h7.05v66.86h-7.05v-33.43ZM457.54,709.15c-4.1-1.39-5.06-4.02-5.46-14.99-.39-10.63-.65-11.17-5.69-11.84l-3.36-.45.19-2.95q.19-2.94,3.33-3.45c4.82-.77,5.14-1.44,5.52-11.58.5-13.24,1.79-15,11.36-15.49l5.29-.27v6.44l-3.24.35c-1.78.19-3.57.71-3.96,1.16-.42.47-.84,4.38-1,9.27-.29,8.85-1.09,11.97-3.24,12.74-1.08.39-.99.68.95,2.85,2.11,2.37,2.16,2.56,2.16,8.51,0,9.49.52,12.46,2.35,13.4.86.44,2.55.79,3.77.79,2.2,0,2.21.03,2.21,3.24v3.24l-4.33-.05c-2.38-.03-5.47-.44-6.86-.91h0ZM602.01,706.99v-3.14l3.31-.36c2.03-.22,3.61-.81,4.08-1.53.44-.68.9-4.8,1.08-9.77.34-9.21,1.09-11.68,3.84-12.66l1.45-.52-1.39-.58c-2.74-1.14-3.54-3.74-3.89-12.64-.39-9.89-.96-11.02-5.59-11.02h-2.88v-6.65l5.61.34c9.79.59,10.56,1.6,11.04,14.38.4,10.7,1,11.96,6.04,12.59l2.96.37v6.1l-3.23.48c-4.82.72-5.74,2.78-5.74,12.9,0,9.92-.8,12.13-4.98,13.72-1.62.62-4.91,1.13-7.32,1.13h-4.37v-3.14ZM390.5,705.19c-4.84-9.03-6.79-16.61-6.78-26.42,0-6.51.27-8.4,1.92-13.73,1.05-3.4,2.99-8.33,4.3-10.96l2.38-4.78h3.49c1.92,0,3.49.21,3.49.47s-.84,2.47-1.87,4.92c-3.91,9.27-4.86,14.2-4.8,24.81.05,9.02.2,10.19,2.14,16.49,1.15,3.73,2.47,7.45,2.93,8.27s1.03,2.22,1.26,3.11c.41,1.54.26,1.62-3,1.62h-3.43l-2.02-3.77ZM413.66,707.72c.2-.69,1.39-4.08,2.67-7.53,5.43-14.72,5.43-27.38,0-42.1-3.51-9.53-3.55-8.79.42-8.78,3.2,0,3.53.17,4.66,2.34,5.92,11.28,7.73,18.72,7.27,29.82-.36,8.72-2.07,15.11-6.17,23.01l-2.32,4.48-3.44.03c-2.99,0-3.39-.15-3.08-1.24h0ZM641.92,699.88c0-.71.43-3.08.95-5.25.52-2.18.95-6.46.95-9.53v-5.57h10.25l-.03,4.85c-.03,4.28-.35,5.53-2.75,10.6l-2.71,5.75-3.34.22c-2.87.19-3.34.03-3.33-1.08h0ZM643.84,663.35v-6.11h10.25v12.22h-10.25v-6.11ZM562.66,703.94c-3.23-1.09-6.26-3.7-7.86-6.77-3.52-6.74-2.48-14.56,2.71-20.39l2.86-3.21-1.18-2.95c-2.33-5.81-1.15-11.5,3.14-15.09,1.95-1.64,9.48-2.41,13.62-1.4l2.56.62.19,4.91c.17,4.5.09,4.87-.96,4.36-.63-.31-2.96-.71-5.16-.89-4.28-.36-5.92.4-5.92,2.75,0,.95,9.85,18.63,11.95,21.46.55.73,1.07-.91,1.36-4.24l.31-3.61h7.07l-.38,4.07c-.21,2.24-1.12,5.67-2.02,7.63l-1.64,3.56,2.21,4.05,2.21,4.05-4.89.21c-3.81.17-5.01-.03-5.42-.86-.46-.92-1.01-.82-3.89.68-3.44,1.8-7.5,2.19-10.87,1.05h0ZM571.45,694.6l1.67-.71-2.44-3.78c-1.34-2.08-3.16-5-4.03-6.49-1.93-3.29-3.14-3.19-4.7.41-1.07,2.46-1.1,3.01-.3,5.38.99,2.91,4.37,5.9,6.67,5.9.81,0,2.22-.32,3.13-.71h0ZM359.19,690.28v-6.11h10.25v12.22h-10.25v-6.11ZM359.19,667.99v-6.11h10.25v12.22h-10.25v-6.11ZM483,690.28v-6.11h10.25v12.22h-10.25v-6.11ZM483,667.99v-6.11h10.25v12.22h-10.25v-6.11ZM528.85,690.28v-6.11h9.61v12.22h-9.61v-6.11ZM528.85,667.99v-6.11h9.61v12.22h-9.61v-6.11ZM668.55,690.46l.19-5.93,4.97-.21,4.97-.21v12.28h-10.31l.19-5.93ZM668.84,673.62c-.23-.26-.43-3.01-.43-6.11v-5.63h10.25v12.22h-4.7c-2.58,0-4.89-.21-5.13-.48h0Z"/>
    </g>
  </g>
</svg>